<?xml version="1.0" standalone="no"?>
<!DOCTYPE svg PUBLIC "-//W3C//DTD SVG 1.1//EN" "http://www.w3.org/Graphics/SVG/1.1/DTD/svg11.dtd" >
<svg>
<metadata>
Created by FontForge 20120731 at Wed Dec  7 18:51:40 2016
 By Apache
Open source pixel / grotesque font
</metadata>
<defs>
<font id="TerminalGrotesque-Open" horiz-adv-x="212" >
  <font-face 
    font-family="Terminal Grotesque Open"
    font-weight="400"
    font-stretch="normal"
    units-per-em="1000"
    panose-1="0 0 4 0 0 0 0 0 0 0"
    ascent="800"
    descent="-200"
    x-height="480"
    cap-height="640"
    bbox="-54 -192 914 895"
    underline-thickness="51"
    underline-position="126"
    unicode-range="U+0020-FB02"
  />
<missing-glyph horiz-adv-x="756" 
d="M275 90h102v102h-102v-102zM275 209h203v102h-203v-102zM275 328h102v102h-102v-102zM275 447h203v101h-101c-29 0 -53 -10 -72 -29c-20 -21 -30 -45 -30 -72zM697 0h-640v640h640v-640z" />
    <glyph glyph-name="uniFB00" unicode="ff" horiz-adv-x="602" 
d="M330 480v96h-96v-32h-32v-64h128zM202 0h-96v384h-64v96h64v96h32v32h32v32h384v-64h-96v-32h-32v-64h96v-96h-96v-384h-96v384h-128v-384zM138 32h32v384h192v-384h32v384h96v32h-96v128h32v32h-64v-160h-192v96h-32v-96h-64v-32h64v-384z" />
    <glyph glyph-name="uniFB01" unicode="fi" horiz-adv-x="515" 
d="M456 544h-96v96h96v-96zM456 0h-96v480h96v-480zM200 0h-96v384h-64v96h64v96h32v32h32v32h160v-64h-96v-32h-32v-64h96v-96h-96v-384zM136 32h32v384h96v32h-96v96h-32v-96h-64v-32h64v-384zM392 32h32v416h-32v-416zM392 576h32v32h-32v-32z" />
    <glyph glyph-name="uniFB02" unicode="fl" horiz-adv-x="515" 
d="M200 0h-96v384h-64v96h64v96h32v32h32v32h224v-32h32v-32h32v-576h-96v544h-32v32h-96v-32h-32v-64h96v-96h-96v-384zM136 32h32v384h96v32h-96v96h-32v-96h-64v-32h64v-384zM392 32h32v512h-32v-512z" />
    <glyph glyph-name=".notdef" horiz-adv-x="756" 
d="M275 90h102v102h-102v-102zM275 209h203v102h-203v-102zM275 328h102v102h-102v-102zM275 447h203v101h-101c-29 0 -53 -10 -72 -29c-20 -21 -30 -45 -30 -72zM697 0h-640v640h640v-640z" />
    <glyph glyph-name="glyph1" horiz-adv-x="58" 
 />
    <glyph glyph-name="glyph2" horiz-adv-x="58" 
 />
    <glyph glyph-name="space" unicode=" " horiz-adv-x="290" 
 />
    <glyph glyph-name="exclam" unicode="!" 
d="M153 0h-96v96h96v-96zM153 192h-96v448h96v-448zM89 224h32v384h-32v-384zM89 32h32v32h-32v-32z" />
    <glyph glyph-name="quotedbl" unicode="&#x22;" horiz-adv-x="283" 
d="M96 480h-64v160h64v-160zM224 480h-64v160h64v-160z" />
    <glyph glyph-name="numbersign" unicode="#" horiz-adv-x="752" 
d="M278 224h160v96h32v96h-160v-96h-32v-96zM150 96h32v96h-32v-96zM502 288h-32v-96h32v96zM214 192h32v96h-32v-96zM246 448v-96h32v96h-32zM342 544h-32v-96h32v96zM598 544h-32v-96h32v96zM502 352h32v96h-32v-96zM406 192v-96h32v96h-32zM182 0h-96v64h32v96h-96v64
h160v96h32v96h-96v64h160v96h32v64h96v-64h-32v-96h160v96h32v64h96v-64h-32v-96h96v-64h-160v-96h-32v-96h96v-64h-160v-96h-32v-64h-96v64h32v96h-160v-96h-32v-64z" />
    <glyph glyph-name="dollar" unicode="$" horiz-adv-x="513" 
d="M307 96h32v32h32v96h-32v32h-32v-160zM211 384h32v160h-64v-32h-32v-96h64v-32zM307 -64h-64v64h-64v32h-64v32h-32v32h-32v64h96v-32h32v-32h64v192h-32v32h-96v32h-32v32h-32v160h32v32h32v32h32v32h96v64h64v-64h64v-32h32v-32h32v-64h-96v32h-32v-192h64v-32h64v-64
h32v-160h-32v-32h-32v-32h-64v-32h-32v-64zM179 576h96h64v32h-160v-32zM307 64h-96v-32h96v32zM339 288v32h-64v32h-32v-32h32v-32h64zM403 128h32v96h-32v-96zM115 512h-32v-96h32v96zM147 352h32v32h-32v-32zM403 256v32h-32v-32h32z" />
    <glyph glyph-name="percent" unicode="%" horiz-adv-x="650" 
d="M463 64h64v96h-64v-96zM111 480h64v96h-64v-96zM527 0h-64v32h-32v32h-32v96h32v32h32v32h64v-32h32v-32h32v-96h-32v-32h-32v-32zM175 416h-64v32h-32v32h-32v96h32v32h32v32h64v-32h32v-32h32v-96h-32v-32h-32v-32zM143 0h-96v32h32v64h32v32h32v32h32v64h32v32h32v32
h32v64h32v32h32v32h32v64h32v32h32v32h32v64h32v32h96v-32h-32v-64h-32v-32h-32v-32h-32v-64h-32v-32h-32v-32h-32v-64h-32v-32h-32v-32h-32v-64h-32v-32h-32v-32h-32v-64h-32v-32z" />
    <glyph glyph-name="ampersand" unicode="&#x26;" horiz-adv-x="586" 
d="M397 0h-224v32h-64v32h-32v64h-32v128h32v64h32v32h32v32h-32v32h-32v96h32v64h32v32h64v32h128v-32h64v-32h32v-32h32v-96h-32v-32h-96v32h32v64h-32v32h-128v-32h-32v-96h32v-32h64v-64h-64v-32h-32v-32h-32v-128h32v-32h192v32h32v96h-32v64h192v-64h-64v-128h-32v-32
h-32v-32h-32v-32zM205 32h160v32h-160v-32zM429 128h32v128h-32v-128zM109 224h-32v-64h32v64zM301 576v32h-64v-32h64zM141 480h-32v-32h32v32zM397 480h32v32h-32v-32z" />
    <glyph glyph-name="quotesingle" unicode="'" horiz-adv-x="155" 
d="M96 480h-64v160h64v-160z" />
    <glyph glyph-name="parenleft" unicode="(" horiz-adv-x="329" 
d="M270 0h-96v32h-32v32h-32v32h-32v96h-32v256h32v96h32v32h32v32h32v32h96v-32h-32v-32h-32v-64h-32v-96h-32v-192h32v-96h32v-64h32v-32h32v-32zM110 416h-32v-192h32v192zM142 128v64h-32v-64h32zM110 448h32v64h-32v-64z" />
    <glyph glyph-name="parenright" unicode=")" horiz-adv-x="307" 
d="M131 0h-96v32h32v32h32v64h32v96h32v192h-32v96h-32v64h-32v32h-32v32h96v-32h32v-32h32v-32h32v-96h32v-256h-32v-96h-32v-32h-32v-32h-32v-32zM195 224h32v192h-32v-192zM195 448v64h-32v-64h32zM163 128h32v64h-32v-64z" />
    <glyph glyph-name="asterisk" unicode="*" horiz-adv-x="304" 
d="M85 448h-32v64h32v32h-32v32h-32v32h96v64h32v-64h96v-32h-32v-32h-32v-32h32v-64h-32v32h-32v32h-32v-32h-32v-32zM149 544v32h-32v-32h32z" />
    <glyph glyph-name="plus" unicode="+" horiz-adv-x="524" 
d="M303 32h-96v192h-192v96h192v192h96v-192h192v-96h-192v-192zM239 64h32v192h192v32h-192v192h-32v-192h-192v-32h192v-192z" />
    <glyph glyph-name="comma" unicode="," horiz-adv-x="180" 
d="M91 -96h-64v32h32v32h32v32h-64v96h96v-160h-32v-32zM91 32v32h-32v-32h32z" />
    <glyph glyph-name="hyphen" unicode="-" horiz-adv-x="422" 
d="M387 320v-96h-352v96h352zM355 256v32h-288v-32h288z" />
    <glyph glyph-name="period" unicode="." horiz-adv-x="171" 
d="M123 0h-96v96h96v-96zM59 32h32v32h-32v-32z" />
    <glyph glyph-name="slash" unicode="/" horiz-adv-x="479" 
d="M86 -64h-96v64h32v64h32v64h32v64h32v64h32v64h32v64h32v64h32v64h32v64h32v64h32v64h96v-64h-32v-64h-32v-64h-32v-64h-32v-64h-32v-64h-32v-64h-32v-64h-32v-64h-32v-64h-32v-64h-32v-64z" />
    <glyph glyph-name="zero" unicode="0" horiz-adv-x="575" 
d="M207 96h160v32h32v96h32v192h-32v96h-32v32h-160v-32h-32v-96h-32v-192h32v-96h32v-32zM399 0h-224v32h-64v64h-32v96h-32v256h32v96h32v64h64v32h224v-32h64v-64h32v-96h32v-256h-32v-96h-32v-64h-64v-32zM463 224h32v192h-32v-192zM111 416h-32v-192h32v192zM207 32
h160v32h-160v-32zM367 576v32h-160v-32h160zM111 128h32v64h-32v-64zM143 512h-32v-64h32v64zM463 448v64h-32v-64h32zM431 128h32v64h-32v-64zM143 576v-32h32v32h-32zM399 64h32v32h-32v-32zM431 544v32h-32v-32h32zM143 64h32v32h-32v-32z" />
    <glyph glyph-name="one" unicode="1" horiz-adv-x="281" 
d="M222 0h-96v480h-96v64h32v32h32v32h32v32h96v-640zM158 32h32v576h-32v-32h-32v-32h-32v-32h64v-480z" />
    <glyph glyph-name="two" unicode="2" horiz-adv-x="546" 
d="M498 0h-448v96h32v32h32v32h32v32h32v32h32v32h32v32h32v32h32v32h32v32h32v128h-32v32h-128v-32h-32v-32h-32v-64h-96v64h32v64h32v32h32v32h32v32h192v-32h32v-32h32v-32h32v-192h-32v-32h-32v-32h-32v-32h-32v-32h-32v-32h-32v-32h-32v-32h-32v-32h288v-96zM82 32h384
v32h-288v64h-32v-32h-32v-32h-32v-32zM338 576v32h-128v-32h128zM402 384h32v128h-32v-128z" />
    <glyph glyph-name="three" unicode="3" horiz-adv-x="523" 
d="M336 0h-192v32h-32v32h-32v32h-32v64h96v-32h32v-32h160v32h32v128h-32v32h-128v96h128v32h32v96h-32v32h-160v-32h-32v-32h-96v64h32v32h32v32h32v32h192v-32h64v-32h32v-32h32v-160h-32v-32h-32v-32h32v-32h32v-192h-32v-32h-32v-32h-64v-32zM176 32h128v32h-128v-32z
M368 352h-128v-32h128v32zM304 576v32h-128v-32h128zM400 128h32v128h-32v-128zM400 416h32v96h-32v-96z" />
    <glyph glyph-name="four" unicode="4" horiz-adv-x="533" 
d="M120 256h192v224h-32v-32h-32v-32h-32v-32h-32v-32h-32v-32h-32v-64zM408 0h-96v160h-288v192h32v32h32v32h32v32h32v32h32v32h32v32h32v32h32v32h32v32h96v-384h96v-96h-96v-160zM344 224h-256v96h-32v-128h288v-160h32v160h96v32h-96v384h-32v-32h-32v-32h-32v-32h64
v-288z" />
    <glyph glyph-name="five" unicode="5" horiz-adv-x="531" 
d="M332 0h-160v32h-64v32h-32v32h-32v96h96v-64h32v-32h128v32h64v64h32v64h-32v32h-32v32h-32v32h-224v128h32v96h32v64h288v-96h-224v-64h-32v-32h160v-32h64v-32h32v-32h32v-64h32v-128h-32v-64h-32v-32h-32v-32h-64v-32zM300 384v32h-160v32h-32v-64h192zM172 576h224
v32h-224v-32zM428 288v32h-32v32h-32v32h-32v-32h32v-32h32v-32h32zM204 32h96v32h-96v-32zM428 192h32v64h-32v-64zM332 64h32v32h-32v-32zM108 128v32h-32v-32h32zM140 512h32v32h-32v-32zM396 128h32v32h-32v-32z" />
    <glyph glyph-name="six" unicode="6" horiz-adv-x="554" 
d="M207 96h160v32h32v128h-32v32h-160v-32h-32v-128h32v-32zM399 0h-224v32h-64v64h-32v96h-32v256h32v96h32v64h64v32h224v-32h64v-64h32v-64h-96v32h-32v32h-160v-32h-32v-96h-32v-96h32v32h32v32h224v-32h32v-32h32v-224h-32v-64h-64v-32zM431 128h32v160h-32v32h-32v32
h-160v-32h160v-32h32v-160zM111 416h-32v-192h32v-96h32v160h-32v128zM367 576v32h-160v-32h160zM207 32h160v32h-160v-32zM111 448h32v64h-32v-64zM143 544h32v32h-32v-32zM399 64h32v32h-32v-32zM143 64h32v32h-32v-32zM399 576v-32h32v32h-32z" />
    <glyph glyph-name="seven" unicode="7" horiz-adv-x="540" 
d="M225 0h-96v128h32v64h32v96h32v64h32v64h32v64h32v32h32v32h-352v96h480v-96h-32v-64h-32v-32h-32v-64h-32v-64h-32v-64h-32v-64h-32v-96h-32v-96zM385 512h32v64h32v32h-416v-32h352v-64zM161 32h32v64h-32v-64zM257 288h32v32h-32v-32zM321 416h32v32h-32v-32zM289 352
h32v32h-32v-32zM193 128h32v32h-32v-32zM225 224h32v32h-32v-32z" />
    <glyph glyph-name="eight" unicode="8" horiz-adv-x="537" 
d="M205 384h128v32h32v96h-32v32h-128v-32h-32v-96h32v-32zM173 96h192v32h32v128h-32v32h-32v32h-128v-32h-32v-32h-32v-128h32v-32zM365 0h-192v32h-64v32h-32v64h-32v128h32v64h32v32h32v32h-32v32h-32v96h32v64h32v32h64v32h128v-32h64v-32h32v-64h32v-96h-32v-32h-32
v-32h32v-32h32v-64h32v-128h-32v-64h-32v-32h-64v-32zM205 32h128v32h-128v-32zM429 160h32v64h-32v-64zM109 224h-32v-64h32v64zM237 576h64v32h-64v-32zM397 448h32v32h-32v-32zM141 480h-32v-32h32v32z" />
    <glyph glyph-name="nine" unicode="9" horiz-adv-x="549" 
d="M181 352h160v32h32v128h-32v32h-160v-32h-32v-128h32v-32zM373 0h-224v32h-64v64h-32v64h96v-32h32v-32h160v32h32v96h32v96h-32v-32h-32v-32h-224v32h-32v64h-32v160h32v96h64v32h224v-32h64v-64h32v-96h32v-256h-32v-96h-32v-64h-64v-32zM437 224h32v192h-32v96h-32
v-160h32v-128zM309 320h-160v32h-32v-32h32v-32h160v32zM181 32h160v32h-160v-32zM341 576v32h-160v-32h160zM117 480h-32v-96h32v96zM405 128h32v64h-32v-64zM149 64v32h-32v-32h32zM405 544v32h-32v-32h32zM117 576v-32h32v32h-32zM373 64h32v32h-32v-32z" />
    <glyph glyph-name="colon" unicode=":" horiz-adv-x="195" 
d="M146 32h-96v96h96v-96zM146 320h-96v96h96v-96zM82 352h32v32h-32v-32zM82 64h32v32h-32v-32z" />
    <glyph glyph-name="semicolon" unicode=";" horiz-adv-x="203" 
d="M146 352h-96v96h96v-96zM114 -96h-64v32h32v32h32v32h-64v96h96v-160h-32v-32zM114 32v32h-32v-32h32zM82 384h32v32h-32v-32z" />
    <glyph glyph-name="less" unicode="&#x3c;" horiz-adv-x="366" 
d="M275 64h-32v32h-32v32h-32v32h-32v32h-32v32h-32v32h-32v32h-32v32h32v32h32v32h32v32h32v32h32v32h32v32h32v32h32v-32h32v-32h-32v-32h-32v-32h-32v-32h-32v-32h-32v-32h-32v-32h32v-32h32v-32h32v-32h32v-32h32v-32h32v-32h-32v-32z" />
    <glyph glyph-name="equal" unicode="=" horiz-adv-x="610" 
d="M561 128h-512v96h512v-96zM561 352h-512v96h512v-96zM81 384h448v32h-448v-32zM81 160h448v32h-448v-32z" />
    <glyph glyph-name="greater" unicode="&#x3e;" horiz-adv-x="366" 
d="M113 64h-32v32h-32v32h32v32h32v32h32v32h32v32h32v32h32v32h-32v32h-32v32h-32v32h-32v32h-32v32h-32v32h32v32h32v-32h32v-32h32v-32h32v-32h32v-32h32v-32h32v-32h32v-32h-32v-32h-32v-32h-32v-32h-32v-32h-32v-32h-32v-32h-32v-32z" />
    <glyph glyph-name="question" unicode="?" horiz-adv-x="531" 
d="M312 0h-96v96h96v-96zM312 192h-96v96h32v32h32v32h32v32h32v32h32v96h-32v32h-160v-32h-32v-32h-32v-64h-96v64h32v64h32v32h32v32h32v32h192v-32h64v-32h32v-32h32v-160h-32v-32h-32v-32h-32v-32h-32v-32h-32v-64zM312 576v32h-128v-32h128zM408 416h32v96h-32v-96z
M248 224h32v32h-32v-32zM248 32h32v32h-32v-32z" />
    <glyph glyph-name="at" unicode="@" horiz-adv-x="605" 
d="M271 160h64v32h32v192h-96v-32h-32v-160h32v-32zM335 -32h-128v32h-64v32h-32v32h-32v64h-32v288h32v64h32v32h32v32h32v32h64v32h160v-32h64v-32h32v-32h32v-32h32v-320h-32v-32h-32v-32h-64v32h-32v32h-32v-32h-32v-32h-96v32h-32v32h-32v224h32v32h32v32h160v-32h32
v-256h32v32h32v256h-32v32h-32v32h-64v32h-96v-32h-64v-32h-32v-32h-32v-32h-32v-288h32v-32h32v-32h64v-32h96v-64z" />
    <glyph glyph-name="A" unicode="A" horiz-adv-x="674" 
d="M210 288h224v32h-32v64h-32v64h-32v64h-32v-64h-32v-64h-32v-64h-32v-32zM114 0h-96v96h32v64h32v96h32v64h32v64h32v64h32v64h32v64h32v64h96v-64h32v-64h32v-64h32v-64h32v-64h32v-64h32v-96h32v-64h32v-96h-96v64h-32v64h-32v64h-288v-64h-32v-64h-32v-64zM466 256
h-288v32h-32v-64h352v-64h32v64h-32v64h-32v-32zM114 160h32v64h-32v-64zM306 544h32v64h-32v-64zM562 32h32v32h-32v-32zM530 96h32v32h-32v-32zM50 32h32v32h-32v-32zM82 96h32v32h-32v-32z" />
    <glyph glyph-name="B" unicode="B" horiz-adv-x="552" 
d="M153 384h192v32h32v96h-32v32h-192v-160zM153 96h224v32h32v128h-32v32h-224v-192zM409 0h-352v640h320v-32h32v-32h32v-32h32v-160h-32v-64h32v-32h32v-192h-32v-32h-32v-32h-32v-32zM377 64h-256v256h288v64h-32v-32h-256v224h224v32h-256v-576h288v32zM441 128h32v128
h-32v-128zM409 416h32v96h-32v-96z" />
    <glyph glyph-name="C" unicode="C" horiz-adv-x="661" 
d="M428 0h-160v32h-96v32h-32v32h-32v32h-32v64h-32v256h32v64h32v32h32v32h32v32h96v32h160v-32h96v-32h32v-64h32v-32h32v-32h-128v32h-32v32h-64v32h-96v-32h-64v-32h-32v-32h-32v-64h-32v-128h32v-64h32v-32h32v-32h64v-32h96v32h64v32h32v32h128v-32h-32v-32h-32v-64
h-32v-32h-96v-32zM268 64v32h-64v32h-32v32h-32v64h-32v192h-32v-192h32v-64h32v-32h32v-32h32v-32h64zM300 32h96v32h-96v-32zM396 576v32h-96v-32h96zM428 576v-32h64v-32h32v32h-32v32h-64zM204 544h64v32h-64v-32zM428 64h64v32h-64v-32zM108 416h32v64h-32v-64z
M172 512h32v32h-32v-32zM492 96h32v32h-32v-32zM140 480h32v32h-32v-32z" />
    <glyph glyph-name="D" unicode="D" horiz-adv-x="615" 
d="M153 96h160v32h64v32h32v32h32v64h32v128h-32v64h-32v32h-32v32h-64v32h-160v-448zM345 0h-288v640h288v-32h96v-32h32v-32h32v-32h32v-64h32v-256h-32v-64h-32v-32h-32v-32h-32v-32h-96v-32zM313 64h-192v512h192v32h-224v-576h224v32zM505 224h32v192h-32v64h-32v32
h-32v32h-32v32h-64v-32h64v-32h32v-32h32v-64h32v-192zM473 160h32v64h-32v-64zM345 64h64v32h-64v-32zM409 96h32v32h-32v-32zM441 128h32v32h-32v-32z" />
    <glyph glyph-name="E" unicode="E" horiz-adv-x="500" 
d="M441 0h-384v640h384v-96h-288v-160h288v-96h-288v-192h288v-96zM89 32h320v32h-288v256h288v32h-288v224h288v32h-320v-576z" />
    <glyph glyph-name="F" unicode="F" horiz-adv-x="500" 
d="M153 0h-96v640h384v-96h-288v-160h288v-96h-288v-288zM89 32h32v288h288v32h-288v224h288v32h-320v-576z" />
    <glyph glyph-name="G" unicode="G" horiz-adv-x="667" 
d="M428 0h-160v32h-96v32h-32v32h-32v32h-32v64h-32v256h32v64h32v32h32v32h32v32h96v32h160v-32h96v-32h32v-64h32v-32h32v-32h-128v32h-32v32h-64v32h-96v-32h-64v-32h-32v-32h-32v-64h-32v-128h32v-64h32v-32h32v-32h64v-32h96v32h64v32h32v32h32v64h-192v96h288v-192
h-32v-32h-32v-64h-32v-32h-96v-32zM268 64v32h-64v32h-32v32h-32v64h-32v192h-32v-192h32v-64h32v-32h32v-32h32v-32h64zM556 192h32v128h-224v-32h192v-96zM300 32h96v32h-96v-32zM428 576v-32h64v-32h32v32h-32v32h-64zM396 576v32h-96v-32h96zM428 64h64v32h-64v-32z
M204 544h64v32h-64v-32zM108 416h32v64h-32v-64zM172 512h32v32h-32v-32zM492 96h32v32h-32v-32zM140 480h32v32h-32v-32z" />
    <glyph glyph-name="H" unicode="H" horiz-adv-x="596" 
d="M153 0h-96v640h96v-256h288v256h96v-640h-96v288h-288v-288zM89 32h32v288h352v-288h32v576h-32v-256h-352v256h-32v-576z" />
    <glyph glyph-name="I" unicode="I" 
d="M153 0h-96v640h96v-640zM89 32h32v576h-32v-576z" />
    <glyph glyph-name="J" unicode="J" horiz-adv-x="426" 
d="M271 0h-160v32h-64v64h-32v128h96v-96h32v-32h96v32h32v512h96v-544h-32v-64h-64v-32zM303 128h32v480h-32v-480zM143 32h96v32h-96v-32zM79 128v64h-32v-64h32zM271 64h32v32h-32v-32zM111 64v32h-32v-32h32z" />
    <glyph glyph-name="K" unicode="K" horiz-adv-x="681" 
d="M153 0h-96v640h96v-288h32v32h32v32h32v32h32v32h32v32h32v32h32v32h32v32h32v32h128v-32h-32v-32h-32v-32h-32v-32h-32v-32h-32v-32h-32v-32h-32v-32h-32v-64h32v-32h32v-32h32v-32h32v-32h32v-32h32v-32h32v-32h32v-32h32v-32h32v-32h-128v32h-32v32h-32v32h-32v32h-32
v32h-32v32h-32v32h-32v32h-32v32h-32v-32h-32v-32h-32v-224zM89 32h32v224h32v32h32v32h-64v288h-32v-576zM217 320h64v64h-32v-32h-32v-32z" />
    <glyph glyph-name="L" unicode="L" horiz-adv-x="521" 
d="M473 0h-416v640h96v-544h320v-96zM89 32h352v32h-320v544h-32v-576z" />
    <glyph glyph-name="M" unicode="M" horiz-adv-x="724" 
d="M153 0h-96v640h160v-96h32v-64h32v-96h32v-96h32v-128h32v128h32v96h32v96h32v64h32v96h160v-640h-96v480h-32v-64h-32v-128h-32v-128h-32v-96h-32v-64h-96v64h-32v96h-32v128h-32v128h-32v64h-32v-480zM89 32h32v480h64v96h-96v-576zM537 512h64v-480h32v576h-96v-96z
M313 96h32v-64h32v64h32v32h-96v-32zM409 192h32v64h-32v-64zM281 192h32v64h-32v-64zM249 320h32v32h-32v-32zM441 320h32v32h-32v-32z" />
    <glyph glyph-name="N" unicode="N" horiz-adv-x="628" 
d="M153 0h-96v640h160v-64h32v-64h32v-64h32v-64h32v-64h32v-64h32v-64h32v-64h32v512h96v-640h-160v64h-32v64h-32v64h-32v64h-32v64h-32v64h-32v64h-32v64h-32v-512zM89 32h32v512h64v64h-96v-576zM441 96v-64h96v576h-32v-512h-64z" />
    <glyph glyph-name="O" unicode="O" horiz-adv-x="698" 
d="M300 96h96v32h64v32h32v32h32v64h32v128h-32v64h-32v32h-32v32h-64v32h-96v-32h-64v-32h-32v-32h-32v-64h-32v-128h32v-64h32v-32h32v-32h64v-32zM428 0h-160v32h-96v32h-32v32h-32v32h-32v64h-32v256h32v64h32v32h32v32h32v32h96v32h160v-32h96v-32h32v-32h32v-32h32
v-64h32v-256h-32v-64h-32v-32h-32v-32h-32v-32h-96v-32zM588 224h32v192h-32v64h-32v32h-32v32h-32v32h-64v-32h64v-32h32v-32h32v-64h32v-192zM204 64h64v32h-64v32h-32v32h-32v64h-32v192h-32v-192h32v-64h32v-32h32v-32h32v-32zM300 32h96v32h-96v-32zM396 576v32h-96
v-32h96zM428 64h64v32h-64v-32zM204 576v-32h64v32h-64zM556 160h32v64h-32v-64zM140 480h-32v-64h32v64zM524 128h32v32h-32v-32zM204 544h-32v-32h32v32zM492 96h32v32h-32v-32zM172 512h-32v-32h32v32z" />
    <glyph glyph-name="P" unicode="P" horiz-adv-x="564" 
d="M153 384h224v32h32v96h-32v32h-224v-160zM153 0h-96v640h352v-32h32v-32h32v-32h32v-160h-32v-32h-32v-32h-32v-32h-256v-288zM377 352h-256v224h256v32h-288v-576h32v288h256v32zM441 416h32v96h-32v-96z" />
    <glyph glyph-name="Q" unicode="Q" horiz-adv-x="698" 
d="M300 96h96v32h64v32h32v32h32v64h32v128h-32v64h-32v32h-32v32h-64v32h-96v-32h-64v-32h-32v-32h-32v-64h-32v-128h32v-64h32v-32h32v-32h64v-32zM460 -128h-96v32h-32v32h-32v64h-32v32h-96v32h-32v32h-32v32h-32v64h-32v256h32v64h32v32h32v32h32v32h96v32h160v-32h96
v-32h32v-32h32v-32h32v-64h32v-256h-32v-64h-32v-32h-32v-32h-32v-32h-96v-32h-32v-32h64v-96zM588 224h32v192h-32v64h-32v32h-32v32h-32v32h-64v-32h64v-32h32v-32h32v-64h32v-192zM204 64h64v32h-64v32h-32v32h-32v64h-32v192h-32v-192h32v-64h32v-32h32v-32h32v-32z
M364 -32v64h32v32h-96v-32h32v-64h32zM396 576v32h-96v-32h96zM204 576v-32h64v32h-64zM140 480h-32v-64h32v64zM556 160h32v64h-32v-64zM428 64h64v32h-64v-32zM396 -96h32v32h-32v-32zM524 128h32v32h-32v-32zM172 512h-32v-32h32v32zM492 96h32v32h-32v-32zM204 544h-32
v-32h32v32z" />
    <glyph glyph-name="R" unicode="R" horiz-adv-x="617" 
d="M153 384h224v32h32v96h-32v32h-224v-160zM153 0h-96v640h352v-32h32v-32h32v-32h32v-160h-32v-32h-32v-32h-32v-32h-96v-32h32v-32h32v-32h32v-32h32v-32h32v-32h32v-32h32v-32h32v-32h-128v32h-32v32h-32v32h-32v32h-32v32h-32v32h-32v32h-32v32h-32v32h-32v-288z
M377 352h-256v224h256v32h-288v-576h32v288h96v-32h32v-32h32v64h96v32zM441 416h32v96h-32v-96z" />
    <glyph glyph-name="S" unicode="S" horiz-adv-x="515" 
d="M340 0h-160v32h-64v32h-32v32h-32v64h96v-32h32v-32h160v32h32v96h-32v32h-32v32h-96v32h-96v32h-32v32h-32v160h32v32h32v32h32v32h224v-32h32v-32h32v-64h-96v32h-160v-32h-32v-96h64v-32h96v-32h64v-32h64v-64h32v-160h-32v-32h-32v-32h-64v-32zM340 576v32h-160v-32
h160zM116 512h-32v-96h32v96zM404 128h32v96h-32v-96zM212 32h96v32h-96v-32zM276 320v32h-32v-32h32zM180 352v32h-32v-32h32zM404 256v32h-32v-32h32z" />
    <glyph glyph-name="T" unicode="T" horiz-adv-x="550" 
d="M320 0h-96v544h-224v96h544v-96h-224v-544zM256 32h32v544h224v32h-480v-32h224v-544z" />
    <glyph glyph-name="U" unicode="U" horiz-adv-x="594" 
d="M407 0h-224v32h-64v32h-32v64h-32v512h96v-448h32v-64h32v-32h160v32h32v64h32v448h96v-512h-32v-64h-32v-32h-64v-32zM183 64v32h-32v64h-32v448h-32v-448h32v-64h32v-32h32zM471 160h32v448h-32v-448zM215 32h160v32h-160v-32zM439 96h32v64h-32v-64zM407 64h32v32h-32
v-32z" />
    <glyph glyph-name="V" unicode="V" horiz-adv-x="618" 
d="M335 0h-96v64h-32v96h-32v64h-32v96h-32v96h-32v64h-32v96h-32v64h96v-64h32v-96h32v-64h32v-96h32v-96h32v-64h32v64h32v96h32v96h32v64h32v96h32v64h96v-64h-32v-96h-32v-64h-32v-96h-32v-96h-32v-64h-32v-96h-32v-64zM271 32h32v64h32v32h-96v-32h32v-64zM111 512v32
h-32v-32h32zM175 352v32h-32v-32h32zM207 256v32h-32v-32h32zM463 512h32v32h-32v-32zM399 352h32v32h-32v-32zM367 256h32v32h-32v-32z" />
    <glyph glyph-name="W" unicode="W" horiz-adv-x="826" 
d="M287 0h-96v64h-32v96h-32v128h-32v128h-32v96h-32v128h96v-128h32v-128h32v-96h32v-128h32v128h32v96h32v128h32v128h96v-128h32v-128h32v-96h32v-128h32v128h32v96h32v128h32v128h96v-128h-32v-96h-32v-128h-32v-128h-32v-96h-32v-64h-96v64h-32v96h-32v128h-32v128h-32
v-128h-32v-128h-32v-96h-32v-64zM351 448h96v32h-32v128h-32v-128h-32v-32zM223 32h32v64h32v32h-96v-32h32v-64zM511 96h32v-64h32v64h32v32h-96v-32zM95 544v64h-32v-64h32zM287 192h32v64h-32v-64zM607 192h32v64h-32v-64zM703 544h32v64h-32v-64zM191 192v64h-32v-64h32
zM479 192h32v64h-32v-64zM639 320h32v32h-32v-32zM127 448v32h-32v-32h32zM447 320h32v32h-32v-32zM319 320h32v32h-32v-32zM159 320v32h-32v-32h32zM671 448h32v32h-32v-32z" />
    <glyph glyph-name="X" unicode="X" horiz-adv-x="674" 
d="M167 0h-128v64h32v32h32v32h32v32h32v64h32v32h32v32h32v64h-32v32h-32v32h-32v64h-32v32h-32v32h-32v32h-32v64h128v-32h32v-64h32v-32h32v-32h32v-64h64v64h32v32h32v32h32v64h32v32h128v-64h-32v-32h-32v-32h-32v-32h-32v-64h-32v-32h-32v-32h-32v-64h32v-32h32v-32
h32v-64h32v-32h32v-32h32v-32h32v-64h-128v32h-32v64h-32v32h-32v32h-32v64h-64v-64h-32v-32h-32v-32h-32v-64h-32v-32zM359 256v128h-64v-128h64zM167 544v32h-32v32h-32v-32h32v-32h32zM391 192h32v-32h32v32h-32v32h-32v-32zM263 416v32h-32v32h-32v-32h32v-32h32z
M487 64h32v-32h32v32h-32v32h-32v-32zM423 448h32v32h-32v-32zM391 416h32v32h-32v-32zM519 576h32v32h-32v-32zM199 160h32v32h-32v-32zM135 64h32v32h-32v-32zM231 192h32v32h-32v-32zM487 544h32v32h-32v-32zM103 32h32v32h-32v-32z" />
    <glyph glyph-name="Y" unicode="Y" horiz-adv-x="601" 
d="M348 0h-96v224h-32v64h-32v64h-32v64h-32v64h-32v64h-32v64h-32v32h128v-64h32v-64h32v-64h32v-64h32v-64h32v64h32v64h32v64h32v64h32v64h128v-32h-32v-64h-32v-64h-32v-64h-32v-64h-32v-64h-32v-64h-32v-224zM284 32h32v224h32v32h-96v-32h32v-224zM156 512v32h-32v-32
h32zM188 448v32h-32v-32h32zM220 384v32h-32v-32h32zM252 320v32h-32v-32h32zM380 384h32v32h-32v-32zM476 576h32v32h-32v-32zM444 512h32v32h-32v-32zM412 448h32v32h-32v-32zM124 576v32h-32v-32h32zM348 320h32v32h-32v-32z" />
    <glyph glyph-name="Z" unicode="Z" horiz-adv-x="582" 
d="M523 0h-480v96h32v32h32v32h32v64h32v32h32v32h32v64h32v32h32v32h32v64h32v32h32v32h-352v96h480v-128h-32v-32h-32v-64h-32v-32h-32v-32h-32v-64h-32v-32h-32v-32h-32v-32h-32v-64h-32v-32h320v-96zM75 32h416v32h-320v64h-32v-32h-32v-32h-32v-32zM427 512h32v32h32
v64h-416v-32h352v-64zM395 448h32v32h-32v-32zM363 416h32v32h-32v-32zM299 320h32v32h-32v-32zM267 288h32v32h-32v-32zM171 160h32v32h-32v-32z" />
    <glyph glyph-name="bracketleft" unicode="[" horiz-adv-x="315" 
d="M250 -96h-192v832h192v-64h-128v-704h128v-64z" />
    <glyph glyph-name="backslash" unicode="\" horiz-adv-x="497" 
d="M440 -64h-96v64h-32v64h-32v64h-32v64h-32v64h-32v64h-32v64h-32v64h-32v64h-32v64h-32v64h-32v64h96v-64h32v-64h32v-64h32v-64h32v-64h32v-64h32v-64h32v-64h32v-64h32v-64h32v-64h32v-64z" />
    <glyph glyph-name="bracketright" unicode="]" horiz-adv-x="269" 
d="M204 -96h-192v64h128v704h-128v64h192v-832z" />
    <glyph glyph-name="asciicircum" unicode="^" horiz-adv-x="400" 
d="M85 512h-64v32h32v32h32v32h32v32h128v-32h32v-32h32v-32h32v-32h-64v32h-64v32h-64v-32h-64v-32z" />
    <glyph glyph-name="underscore" unicode="_" horiz-adv-x="735" 
d="M678 -64h-672v64h672v-64z" />
    <glyph glyph-name="grave" unicode="`" horiz-adv-x="229" 
d="M170 544h-96v32h-32v32h-32v32h96v-32h32v-32h32v-32z" />
    <glyph glyph-name="a" unicode="a" horiz-adv-x="509" 
d="M170 96h128v32h32v32h32v160h-32v32h-32v32h-128v-32h-32v-224h32v-32zM298 0h-128v32h-64v32h-32v64h-32v224h32v64h32v32h64v32h128v-32h32v-32h32v64h96v-480h-96v64h-32v-32h-32v-32zM362 96h32v-64h32v416h-32v-64h-32v-32h32v-224h-32v-32zM106 320h-32v-160h32
v160zM202 416h64v32h-64v-32zM202 32h64v32h-64v-32z" />
    <glyph glyph-name="b" unicode="b" horiz-adv-x="510" 
d="M217 96h128v32h32v224h-32v32h-128v-32h-32v-32h-32v-160h32v-32h32v-32zM153 0h-96v640h96v-224h32v32h32v32h128v-32h64v-32h32v-64h32v-224h-32v-64h-32v-32h-64v-32h-128v32h-32v32h-32v-64zM89 32h32v64h32v32h-32v224h32v32h-32v224h-32v-576zM409 160h32v160h-32
v-160zM249 416h64v32h-64v-32zM249 64v-32h64v32h-64zM185 96v-32h32v32h-32zM217 416h-32v-32h32v32z" />
    <glyph glyph-name="c" unicode="c" horiz-adv-x="441" 
d="M298 0h-128v32h-64v32h-32v64h-32v224h32v64h32v32h64v32h128v-32h64v-32h32v-96h-64v32h-32v32h-128v-32h-32v-224h32v-32h128v32h32v32h64v-96h-32v-32h-64v-32zM106 320h-32v-160h32v160zM202 32h64v32h-64v-32zM266 416v32h-64v-32h64z" />
    <glyph glyph-name="d" unicode="d" horiz-adv-x="513" 
d="M166 96h128v32h32v32h32v160h-32v32h-32v32h-128v-32h-32v-224h32v-32zM294 0h-128v32h-64v32h-32v64h-32v224h32v64h32v32h64v32h128v-32h32v-32h32v224h96v-640h-96v64h-32v-32h-32v-32zM358 96h32v-64h32v576h-32v-224h-32v-32h32v-224h-32v-32zM102 320h-32v-160h32
v160zM198 416h64v32h-64v-32zM198 32h64v32h-64v-32z" />
    <glyph glyph-name="e" unicode="e" horiz-adv-x="468" 
d="M138 288h192v64h-32v32h-128v-32h-32v-64zM298 0h-128v32h-64v32h-32v64h-32v224h32v64h32v32h64v32h128v-32h64v-32h32v-64h32v-128h-288v-96h32v-32h128v32h32v32h96v-64h-32v-32h-32v-32h-64v-32zM74 160h32v160h-32v-160zM266 416v32h-64v-32h64zM362 256h32v64h-32
v-64zM202 32h64v32h-64v-32z" />
    <glyph glyph-name="f" unicode="f" horiz-adv-x="387" 
d="M200 0h-96v384h-64v96h64v96h32v32h32v32h160v-64h-96v-32h-32v-64h96v-96h-96v-384zM136 32h32v384h96v32h-96v96h-32v-96h-64v-32h64v-384z" />
    <glyph glyph-name="g" unicode="g" horiz-adv-x="518" 
d="M173 96h128v32h32v32h32v160h-32v32h-32v32h-128v-32h-32v-224h32v-32zM333 -192h-160v32h-64v32h-32v32h-32v32h32v32h64v-32h32v-32h160v32h32v128h-32v-32h-32v-32h-128v32h-64v32h-32v64h-32v224h32v64h32v32h64v32h128v-32h32v-32h32v64h96v-576h-32v-32h-32v-32
h-64v-32zM397 -64h32v512h-32v-64h-32v-32h32v-224h-32v-32h32v-160zM109 320h-32v-160h32v160zM205 -160h96v32h-96v-32zM269 416v32h-64v-32h64zM205 64v-32h64v32h-64zM301 64h32v32h-32v-32z" />
    <glyph glyph-name="h" unicode="h" horiz-adv-x="521" 
d="M153 0h-96v640h96v-224h32v32h32v32h128v-32h64v-32h32v-64h32v-352h-96v352h-32v32h-128v-32h-32v-32h-32v-320zM89 32h32v320h32v32h-32v224h-32v-576zM409 32h32v288h-32v-288zM313 416v32h-64v-32h64zM185 384h32v32h-32v-32z" />
    <glyph glyph-name="i" unicode="i" 
d="M153 544h-96v96h96v-96zM153 0h-96v480h96v-480zM89 32h32v416h-32v-416zM89 576h32v32h-32v-32z" />
    <glyph glyph-name="j" unicode="j" 
d="M153 544h-96v96h96v-96zM153 -192h-96v672h96v-672zM89 -160h32v608h-32v-608zM89 576h32v32h-32v-32z" />
    <glyph glyph-name="k" unicode="k" horiz-adv-x="521" 
d="M153 0h-96v640h96v-352h32v32h32v32h32v32h32v32h32v32h32v32h128v-32h-32v-32h-32v-32h-32v-32h-32v-32h-32v-32h-32v-32h-32v-32h32v-32h32v-32h32v-32h32v-32h32v-32h32v-32h32v-32h-128v32h-32v32h-32v32h-32v32h-32v32h-32v32h-32v-192zM89 32h32v192h96v32h-96v352
h-32v-576z" />
    <glyph glyph-name="l" unicode="l" 
d="M153 0h-96v640h96v-640zM89 32h32v576h-32v-576z" />
    <glyph glyph-name="m" unicode="m" horiz-adv-x="709" 
d="M149 0h-96v480h96v-64h32v32h32v32h96v-32h32v-32h64v32h32v32h128v-32h32v-32h32v-64h32v-352h-96v352h-32v32h-96v-32h-32v-352h-96v352h-32v32h-64v-32h-32v-32h-32v-320zM85 32h32v320h32v32h-32v64h-32v-416zM341 384v-352h32v352h-32zM597 32h32v288h-32v-288z
M533 416v32h-64v-32h64zM277 416v32h-32v-32h32z" />
    <glyph glyph-name="n" unicode="n" horiz-adv-x="485" 
d="M149 0h-96v480h96v-64h32v32h32v32h96v-32h64v-32h32v-64h32v-352h-96v352h-32v32h-96v-32h-32v-32h-32v-320zM85 32h32v320h32v32h-32v64h-32v-416zM373 32h32v288h-32v-288zM277 416v32h-32v-32h32z" />
    <glyph glyph-name="o" unicode="o" horiz-adv-x="467" 
d="M170 96h128v32h32v224h-32v32h-128v-32h-32v-224h32v-32zM298 0h-128v32h-64v32h-32v64h-32v224h32v64h32v32h64v32h128v-32h64v-32h32v-64h32v-224h-32v-64h-32v-32h-64v-32zM362 160h32v160h-32v-160zM106 320h-32v-160h32v160zM202 416h64v32h-64v-32zM202 32h64v32
h-64v-32z" />
    <glyph glyph-name="p" unicode="p" horiz-adv-x="510" 
d="M213 96h128v32h32v224h-32v32h-128v-32h-32v-32h-32v-160h32v-32h32v-32zM149 -192h-96v672h96v-64h32v32h32v32h128v-32h64v-32h32v-64h32v-224h-32v-64h-32v-32h-64v-32h-128v32h-32v32h-32v-256zM85 -160h32v256h32v32h-32v224h32v32h-32v64h-32v-608zM405 160h32v160
h-32v-160zM245 416h64v32h-64v-32zM245 64v-32h64v32h-64z" />
    <glyph glyph-name="q" unicode="q" horiz-adv-x="515" 
d="M170 96h128v32h32v32h32v160h-32v32h-32v32h-128v-32h-32v-224h32v-32zM458 -192h-96v256h-32v-32h-32v-32h-128v32h-64v32h-32v64h-32v224h32v64h32v32h64v32h128v-32h32v-32h32v64h96v-672zM394 -160h32v608h-32v-64h-32v-32h32v-224h-32v-32h32v-256zM106 320h-32
v-160h32v160zM202 64v-32h64v32h-64zM202 416h64v32h-64v-32z" />
    <glyph glyph-name="r" unicode="r" horiz-adv-x="434" 
d="M149 0h-96v480h96v-64h32v32h32v32h128v-32h32v-32h32v-64h-32v-32h-32v32h-32v32h-96v-32h-32v-32h-32v-320zM85 32h32v320h32v32h-32v64h-32v-416zM309 416v32h-64v-32h64z" />
    <glyph glyph-name="s" unicode="s" horiz-adv-x="411" 
d="M304 0h-192v32h-32v32h-32v64h32v32h32v-32h32v-32h32v-32h64v32h32v64h-32v32h-32v32h-64v32h-32v32h-32v32h-32v96h32v32h32v32h192v-32h32v-96h-64v32h-32v32h-64v-32h-32v-32h32v-32h32v-32h64v-32h32v-32h32v-32h32v-128h-32v-32h-32v-32zM304 96h32v64h-32v-64z
M112 384h-32v-32h32v32z" />
    <glyph glyph-name="t" unicode="t" horiz-adv-x="361" 
d="M200 0h-96v384h-64v96h64v128h96v-128h128v-96h-128v-384zM136 32h32v384h128v32h-128v128h-32v-128h-64v-32h64v-384z" />
    <glyph glyph-name="u" unicode="u" horiz-adv-x="487" 
d="M276 0h-160v32h-32v32h-32v416h96v-352h32v-32h96v32h32v32h32v320h96v-480h-96v64h-32v-32h-32v-32zM148 32h96v32h-96v32h-32v352h-32v-352h32v-32h32v-32zM340 96h32v-64h32v416h-32v-320h-32v-32z" />
    <glyph glyph-name="v" unicode="v" horiz-adv-x="492" 
d="M326 0h-160v64h-32v96h-32v128h-32v96h-32v96h96v-64h32v-128h32v-96h32v-96h32v96h32v96h32v128h32v64h96v-96h-32v-96h-32v-128h-32v-96h-32v-64zM198 32h96v32h-96v-32zM294 96h32v64h-32v-64zM134 320v64h-32v-64h32zM166 192v64h-32v-64h32zM198 96v64h-32v-64h32z
M326 192h32v64h-32v-64zM358 320h32v64h-32v-64zM102 416v32h-32v-32h32zM390 416h32v32h-32v-32z" />
    <glyph glyph-name="w" unicode="w" horiz-adv-x="684" 
d="M358 288h32v-96h32v-96h32v96h32v96h32v96h32v96h96v-96h-32v-96h-32v-128h-32v-96h-32v-64h-128v64h-32v96h-32v-96h-32v-64h-128v64h-32v96h-32v128h-32v96h-32v96h96v-96h32v-96h32v-96h32v-96h32v96h32v96h32v64h32v-64zM358 256h-32v-64h32v64zM198 32h64v32h-64
v-32zM198 96v64h-32v-64h32zM486 96h32v64h-32v-64zM166 192v64h-32v-64h32zM422 32h64v32h-64v-32zM518 192h32v64h-32v-64zM102 416v32h-32v-32h32zM550 320h32v32h-32v-32zM582 416h32v32h-32v-32zM134 320v32h-32v-32h32z" />
    <glyph glyph-name="x" unicode="x" horiz-adv-x="485" 
d="M115 0h-64v96h32v32h32v32h32v32h32v32h32v32h-32v32h-32v32h-32v32h-32v32h-32v96h64v-32h32v-32h32v-32h32v-64h64v64h32v32h32v32h32v32h64v-96h-32v-32h-32v-32h-32v-32h-32v-32h-32v-32h32v-32h32v-32h32v-32h32v-32h32v-96h-64v32h-32v32h-32v32h-32v64h-64v-64
h-32v-32h-32v-32h-32v-32zM179 160h32v32h-32v-32zM179 288v32h32v-32h-32zM275 288h32v32h-32v-32zM275 160v32h32v-32h-32z" />
    <glyph glyph-name="y" unicode="y" horiz-adv-x="460" 
d="M230 -192h-96v96h32v96h32v64h-32v64h-32v64h-32v96h-32v96h-32v96h96v-96h32v-96h32v-96h32v-32h32v128h32v96h32v96h96v-96h-32v-96h-32v-96h-32v-96h-32v-96h-32v-96h-32v-96zM230 32h32v96h-64v-32h32v-64zM166 -160h32v32h-32v-32zM102 416v32h-32v-32h32zM134 320
v32h-32v-32h32zM166 224v32h-32v-32h32zM358 416h32v32h-32v-32zM326 320h32v32h-32v-32zM294 224h32v32h-32v-32zM198 -64h32v32h-32v-32z" />
    <glyph glyph-name="z" unicode="z" horiz-adv-x="516" 
d="M466 0h-416v96h32v32h32v32h32v32h32v32h32v32h32v32h32v32h32v32h32v32h-288v96h416v-96h-32v-32h-32v-32h-32v-32h-32v-32h-32v-32h-32v-32h-32v-32h-32v-32h-32v-32h288v-96zM82 32h352v32h-288v32h-32v-32h-32v-32zM370 384h32v32h32v32h-352v-32h288v-32z" />
    <glyph glyph-name="braceleft" unicode="{" horiz-adv-x="357" 
d="M292 -96h-128v32h-32v32h-32v320h-32v32h-32v32h32v32h32v288h32v32h32v32h128v-32h-64v-32h-32v-256h-32v-32h-32v-32h-32v-32h32v-32h32v-32h32v-288h32v-32h64v-32zM164 0v224h-32v-224h32zM132 448h32v192h-32v-192z" />
    <glyph glyph-name="bar" unicode="|" horiz-adv-x="187" 
d="M122 -96h-64v832h64v-832z" />
    <glyph glyph-name="braceright" unicode="}" horiz-adv-x="283" 
d="M118 -96h-128v32h64v32h32v288h32v32h32v32h32v32h-32v32h-32v32h-32v256h-32v32h-64v32h128v-32h32v-32h32v-288h32v-32h32v-32h-32v-32h-32v-320h-32v-32h-32v-32zM118 0h32v224h-32v-224zM150 448v192h-32v-192h32zM86 -32v-32h32v32h-32z" />
    <glyph glyph-name="asciitilde" unicode="~" horiz-adv-x="457" 
d="M67 256h-32v96h32v32h32v32h96v-32h64v-32h96v32h32v32h32v-96h-32v-32h-32v-32h-96v32h-64v32h-96v-32h-32v-32zM163 352v32h-32v-32h32zM291 320v-32h32v32h-32z" />
    <glyph glyph-name="exclamdown" unicode="&#xa1;" 
d="M153 544h-96v96h96v-96zM153 0h-96v448h96v-448zM89 32h32v384h-32v-384zM89 576h32v32h-32v-32z" />
    <glyph glyph-name="cent" unicode="&#xa2;" horiz-adv-x="467" 
d="M65 -32h-64v32h32v32h32v288h32v32h32v32h32v32h160v32h32v32h64v-32h-32v-32h-32v-32h32v-32h32v-64h-64v32h-32v32h-128v-32h-32v-32h-32v-160h32v-32h32v-32h128v32h32v32h64v-64h-32v-32h-32v-32h-192v32h-64v-32h-32v-32zM129 64v32h-32v-32h32zM161 32v32h32v-32
h-32z" />
    <glyph glyph-name="sterling" unicode="&#xa3;" horiz-adv-x="604" 
d="M65 64h96v64h-32v32h-64v-96zM193 0h-128v32h-32v160h32v32h96v-32h32v128h-128v64h128v192h32v32h32v32h224v-32h32v-32h32v-64h-96v32h-32v32h-96v-32h-32v-160h192v-64h-192v-192h32v-32h32v-32h64v32h32v32h32v32h64v-96h-32v-32h-32v-32h-192v32h-32v32h-32v-32h-32
v-32zM257 96v448h-32v-384h-32v-64h64zM65 64h96v64h-32v32h-64v-96z" />
    <glyph glyph-name="currency" unicode="&#xa4;" horiz-adv-x="609" 
d="M209 96h192v32h32v32h32v192h-32v32h-32v32h-192v-32h-32v-32h-32v-192h32v-32h32v-32zM113 0h-32v32h-32v32h32v32h32v64h-32v192h32v64h-32v32h-32v32h32v32h32v-32h32v-32h64v32h192v-32h64v32h32v32h32v-32h32v-32h-32v-32h-32v-64h32v-192h-32v-64h32v-32h32v-32
h-32v-32h-32v32h-32v32h-64v-32h-192v32h-64v-32h-32v-32z" />
    <glyph glyph-name="yen" unicode="&#xa5;" horiz-adv-x="647" 
d="M300 320h32v64h32v32h-96v-32h32v-64zM364 0h-96v224h-224v64h160v64h-32v64h-128v64h64v64h-32v64h-32v32h128v-64h32v-64h32v-32h160v32h32v64h32v64h128v-32h-32v-64h-32v-64h64v-64h-128v-64h-32v-64h160v-64h-224v-224zM364 288h-96v64h-32v-96h64v-224h32v224h64
v96h-32v-64zM492 448v96h-32v-64h-32v-32h64zM204 448v32h-32v64h-32v-96h64zM396 384h32v64h-32v-64zM204 448v-64h32v64h-32zM492 576h32v32h-32v-32zM140 576v32h-32v-32h32z" />
    <glyph glyph-name="brokenbar" unicode="&#xa6;" horiz-adv-x="187" 
d="M122 -64h-64v768h64v-768z" />
    <glyph glyph-name="section" unicode="&#xa7;" horiz-adv-x="410" 
d="M205 352v32h-32v-32h32zM205 128v-32h32v32h-32zM173 160h96v32h32v64h-32v32h-32v32h-96v-32h-32v-64h32v-32h32v-32zM269 -160h-128v32h-32v64h-32v64h64v-64h32v-32h64v32h32v64h-32v32h-32v32h-32v32h-32v32h-32v32h-32v32h-32v128h32v32h64v64h-32v32h-32v128h32v32
h32v32h128v-32h32v-64h32v-64h-64v64h-32v32h-64v-32h-32v-64h32v-32h32v-32h32v-32h32v-32h32v-32h32v-32h32v-128h-32v-32h-64v-32h32v-64h32v-128h-32v-32h-32v-32z" />
    <glyph glyph-name="dieresis" unicode="&#xa8;" horiz-adv-x="386" 
d="M129 576h-96v96h96v-96zM321 576h-96v96h96v-96zM257 608h32v32h-32v-32zM65 608h32v32h-32v-32z" />
    <glyph glyph-name="copyright" unicode="&#xa9;" horiz-adv-x="730" 
d="M492 0h-256v32h-64v32h-32v32h-32v32h-32v96h32v-64h32v-32h32v-32h64v-32h256v32h64v32h32v32h32v64h32v-96h-32v-32h-32v-32h-32v-32h-64v-32zM76 224h-32v224h32v-224zM684 224h-32v224h32v-224zM460 128h-192v32h-32v32h-32v32h-32v224h32v32h32v32h32v32h192v-32h32
v-32h32v-64h-64v32h-32v32h-128v-32h-32v-32h-32v-160h32v-32h32v-32h128v32h32v32h64v-64h-32v-32h-32v-32zM108 448h-32v96h32v32h32v32h32v32h64v32h256v-32h64v-32h32v-32h32v-32h32v-96h-32v64h-32v32h-32v32h-64v32h-256v-32h-64v-32h-32v-32h-32v-64z" />
    <glyph glyph-name="ordfeminine" unicode="&#xaa;" horiz-adv-x="367" 
d="M308 128h-256v64h256v-64zM148 288h64v32h32v64h-96v-32h-32v-32h32v-32zM212 224h-96v32h-32v32h-32v96h32v32h32v32h128v64h-128v-32h-64v32h32v32h32v32h128v-32h32v-32h32v-288h-64v32h-32v-32z" />
    <glyph glyph-name="guillemotleft" unicode="&#xab;" horiz-adv-x="558" 
d="M275 64h-32v32h-32v32h-32v32h-32v32h-32v32h-32v32h-32v32h-32v32h32v32h32v32h32v32h32v32h32v32h32v32h32v32h32v-32h32v-32h-32v-32h-32v-32h-32v-32h-32v-32h-32v-32h-32v-32h32v-32h32v-32h32v-32h32v-32h32v-32h32v-32h-32v-32zM467 64h-32v32h-32v32h-32v32h-32
v32h-32v32h-32v32h-32v32h-32v32h32v32h32v32h32v32h32v32h32v32h32v32h32v32h32v-32h32v-32h-32v-32h-32v-32h-32v-32h-32v-32h-32v-32h-32v-32h32v-32h32v-32h32v-32h32v-32h32v-32h32v-32h-32v-32z" />
    <glyph glyph-name="logicalnot" unicode="&#xac;" horiz-adv-x="761" 
d="M713 0h-64v288h-640v64h704v-352z" />
    <glyph glyph-name="registered" unicode="&#xae;" horiz-adv-x="730" 
d="M492 0h-256v32h-64v32h-32v32h-32v32h-32v96h32v-64h32v-32h32v-32h64v-32h256v32h64v32h32v32h32v64h32v-96h-32v-32h-32v-32h-32v-32h-64v-32zM76 224h-32v224h32v-224zM300 352h160v96h-160v-96zM684 224h-32v224h32v-224zM300 160h-64v352h224v-32h32v-32h32v-96h-32
v-32h-96v-32h32v-32h32v-32h32v-32h32v-32h-96v32h-32v32h-32v32h-32v32h-32v-128zM108 448h-32v96h32v32h32v32h32v32h64v32h256v-32h64v-32h32v-32h32v-32h32v-96h-32v64h-32v32h-32v32h-64v32h-256v-32h-64v-32h-32v-32h-32v-64z" />
    <glyph glyph-name="overscore" unicode="&#xaf;" horiz-adv-x="496" 
d="M431 608h-416v64h416v-64z" />
    <glyph glyph-name="degree" unicode="&#xb0;" horiz-adv-x="267" 
d="M80 544h64v64h-64v-64zM144 480h-64v32h-32v32h-32v64h32v32h32v32h64v-32h32v-32h32v-64h-32v-32h-32v-32zM80 544h64v64h-64v-64z" />
    <glyph glyph-name="plusminus" unicode="&#xb1;" horiz-adv-x="568" 
d="M520 0h-480v96h480v-96zM328 128h-96v192h-192v96h192v192h96v-192h192v-96h-192v-192zM264 160h32v192h192v32h-192v192h-32v-192h-192v-32h192v-192zM72 32h416v32h-416v-32z" />
    <glyph glyph-name="uni00B2" unicode="&#xb2;" horiz-adv-x="256" 
d="M197 448h-160v64h32v32h32v32h32v64h-64v-32h-32v64h128v-32h32v-64h-32v-32h-32v-32h-32v-32h64v32h32v-64z" />
    <glyph glyph-name="uni00B3" unicode="&#xb3;" horiz-adv-x="252" 
d="M65 480h-32v32h32v-32zM65 608h-32v32h32v-32zM161 448h-96v32h64v64h-32v32h32v64h-64v32h96v-32h32v-64h-32v-32h32v-64h-32v-32z" />
    <glyph glyph-name="acute" unicode="&#xb4;" horiz-adv-x="242" 
d="M113 576h-96v32h32v32h32v32h96v-32h-32v-32h-32v-32z" />
    <glyph glyph-name="uni00B5" unicode="&#xb5;" horiz-adv-x="488" 
d="M149 -192h-96v672h96v-352h32v-32h96v32h32v32h32v320h96v-480h-96v64h-32v-32h-32v-32h-96v32h-32v-224zM85 -160h32v224h32v32h-32v352h-32v-608zM341 96h32v-64h32v416h-32v-320h-32v-32zM213 64v-32h32v32h-32z" />
    <glyph glyph-name="paragraph" unicode="&#xb6;" horiz-adv-x="518" 
d="M293 -160h-64v448h-64v32h-64v32h-32v32h-32v192h32v32h32v32h64v32h288v-832h-64v800h-96v-800zM197 640v-32h-64v-32h-32v-32h-32v-128h32v-32h32v-32h64v-32h64v320h-64z" />
    <glyph glyph-name="middot" unicode="&#xb7;" horiz-adv-x="188" 
d="M129 448h-96v96h96v-96zM65 480h32v32h-32v-32z" />
    <glyph glyph-name="cedilla" unicode="&#xb8;" horiz-adv-x="230" 
d="M141 -192h-128v32h-32v64h32v-32h64v64h-64v64h32v-32h96v-32h32v-96h-32v-32zM109 -128h32v32h-32v-32z" />
    <glyph glyph-name="uni00B9" unicode="&#xb9;" horiz-adv-x="201" 
d="M40 576h-32v32h32v-32zM136 480h-64v128h-32v32h32v32h64v-192z" />
    <glyph glyph-name="ordmasculine" unicode="&#xba;" horiz-adv-x="399" 
d="M340 128h-288v64h288v-64zM148 288h96v32h32v160h-32v32h-96v-32h-32v-160h32v-32zM276 224h-160v32h-32v32h-32v224h32v32h32v32h160v-32h32v-32h32v-224h-32v-32h-32v-32z" />
    <glyph glyph-name="guillemotright" unicode="&#xbb;" horiz-adv-x="558" 
d="M113 64h-32v32h-32v32h32v32h32v32h32v32h32v32h32v32h32v32h-32v32h-32v32h-32v32h-32v32h-32v32h-32v32h32v32h32v-32h32v-32h32v-32h32v-32h32v-32h32v-32h32v-32h32v-32h-32v-32h-32v-32h-32v-32h-32v-32h-32v-32h-32v-32h-32v-32zM305 64h-32v32h-32v32h32v32h32v32
h32v32h32v32h32v32h32v32h-32v32h-32v32h-32v32h-32v32h-32v32h-32v32h32v32h32v-32h32v-32h32v-32h32v-32h32v-32h32v-32h32v-32h32v-32h-32v-32h-32v-32h-32v-32h-32v-32h-32v-32h-32v-32h-32v-32z" />
    <glyph glyph-name="onequarter" unicode="&#xbc;" horiz-adv-x="729" 
d="M494 128h96v96h-32v-32h-32v-32h-32v-32zM654 0h-64v64h-160v96h32v32h32v32h32v32h32v32h32v32h64v-192h32v-64h-32v-64zM174 320h-64v160h-64v32h32v32h32v32h64v-256zM110 0h-64v32h32v32h32v32h32v32h32v32h32v32h32v32h32v32h32v32h32v32h32v32h32v32h32v32h32v32
h32v32h32v32h32v32h32v32h64v-32h-32v-32h-32v-32h-32v-32h-32v-32h-32v-32h-32v-32h-32v-32h-32v-32h-32v-32h-32v-32h-32v-32h-32v-32h-32v-32h-32v-32h-32v-32h-32v-32h-32v-32z" />
    <glyph glyph-name="onehalf" unicode="&#xbd;" horiz-adv-x="766" 
d="M718 0h-224v64h32v32h32v32h32v32h32v32h32v64h-96v-32h-64v32h32v32h32v32h128v-32h32v-96h-32v-32h-32v-32h-32v-32h-32v-32h128v-64zM174 320h-64v160h-64v32h32v32h32v32h64v-256zM110 0h-64v32h32v32h32v32h32v32h32v32h32v32h32v32h32v32h32v32h32v32h32v32h32v32
h32v32h32v32h32v32h32v32h32v32h32v32h64v-32h-32v-32h-32v-32h-32v-32h-32v-32h-32v-32h-32v-32h-32v-32h-32v-32h-32v-32h-32v-32h-32v-32h-32v-32h-32v-32h-32v-32h-32v-32h-32v-32h-32v-32z" />
    <glyph glyph-name="threequarters" unicode="&#xbe;" horiz-adv-x="737" 
d="M502 128h96v96h-32v-32h-32v-32h-32v-32zM662 0h-64v64h-160v96h32v32h32v32h32v32h32v32h32v32h64v-192h32v-64h-32v-64zM214 288h-128v32h-32v64h64v-64h64v96h-64v32h64v96h-64v-64h-64v64h32v32h128v-32h32v-96h-32v-32h32v-96h-32v-32zM118 0h-64v32h32v32h32v32h32
v32h32v32h32v32h32v32h32v32h32v32h32v32h32v32h32v32h32v32h32v32h32v32h32v32h32v32h32v32h64v-32h-32v-32h-32v-32h-32v-32h-32v-32h-32v-32h-32v-32h-32v-32h-32v-32h-32v-32h-32v-32h-32v-32h-32v-32h-32v-32h-32v-32h-32v-32h-32v-32h-32v-32z" />
    <glyph glyph-name="questiondown" unicode="&#xbf;" horiz-adv-x="501" 
d="M286 544h-96v96h96v-96zM350 0h-192v32h-64v32h-32v32h-32v160h32v32h32v32h32v32h32v32h32v64h96v-96h-32v-32h-32v-32h-32v-32h-32v-32h-32v-96h32v-32h160v32h32v32h32v64h96v-64h-32v-64h-32v-32h-32v-32h-32v-32zM190 32h128v32h-128v-32zM94 224h-32v-96h32v96z
M222 384h32v32h-32v-32zM222 576h32v32h-32v-32z" />
    <glyph glyph-name="AE" unicode="&#xc6;" horiz-adv-x="962" 
d="M210 288h224v32h-32v64h-32v64h-32v32h-32v-32h-32v-64h-32v-64h-32v-32zM114 0h-96v96h32v64h32v96h32v64h32v64h32v64h32v64h32v64h32v64h416v-96h-288v-32h32v-64h32v-64h320v-96h-256v-32h32v-96h32v-64h320v-96h-384v64h-32v64h-32v64h-288v-64h-32v-64h-32v-64z
M466 256h-288v32h-32v-64h352v-64h32v64h-32v96h256v32h-288v-96zM370 512v64h288v32h-352v-64h-32v-32h96zM562 32h320v32h-320v-32zM114 160h32v64h-32v-64zM530 96h32v32h-32v-32zM82 96h32v32h-32v-32zM50 32h32v32h-32v-32z" />
    <glyph glyph-name="Eth" unicode="&#xd0;" horiz-adv-x="658" 
d="M196 96h160v32h64v32h32v32h32v64h32v128h-32v64h-32v32h-32v32h-64v32h-160v-192h128v-64h-128v-192zM388 0h-288v288h-64v64h64v288h288v-32h96v-32h32v-32h32v-32h32v-64h32v-256h-32v-64h-32v-32h-32v-32h-32v-32h-96v-32zM356 64h-192v256v256h192v32h-224v-576h224
v32zM548 224h32v192h-32v64h-32v32h-32v32h-32v32h-64v-32h64v-32h32v-32h32v-64h32v-192zM516 160h32v64h-32v-64zM388 64h64v32h-64v-32zM452 96h32v32h-32v-32zM484 128h32v32h-32v-32z" />
    <glyph glyph-name="multiply" unicode="&#xd7;" horiz-adv-x="480" 
d="M112 64h-64v32h32v32h32v32h32v32h32v32h32v32h-32v32h-32v32h-32v32h-32v32h-32v32h64v-32h32v-32h32v-32h32v-32h64v32h32v32h32v32h32v32h64v-32h-32v-32h-32v-32h-32v-32h-32v-32h-32v-32h32v-32h32v-32h32v-32h32v-32h32v-32h-64v32h-32v32h-32v32h-32v32h-64v-32
h-32v-32h-32v-32h-32v-32zM80 96v32h32v32h32v32h32v32h128v-32h32v-32h32v-32h32v-32h32l-32 -32h-32v32h-32v32h-32v32h-32v32h-64v-32h-32v-32h-32v-32h-32v-32h-64zM240 256h-64v32h-32v32h-32v32h-32v32h-32l32 32h32v-32h32v-32h32v-32h32v-32h32v-32zM304 256h-64v32
h32v32h32v32h32v32h32v32h64l-32 -32v-32h-32v-32h-32v-32h-32v-32zM112 64h-64v32h32v32h32v32h32v32h32v32h32v32h-32v32h-32v32h-32v32h-32v32h-32v32h64v-32h32v-32h32v-32h32v-32h64v32h32v32h32v32h32v32h64v-32h-32v-32h-32v-32h-32v-32h-32v-32h-32v-32h32v-32h32
v-32h32v-32h32v-32h32v-32h-64v32h-32v32h-32v32h-32v32h-64v-32h-32v-32h-32v-32h-32v-32z" />
    <glyph glyph-name="Oslash" unicode="&#xd8;" horiz-adv-x="751" 
d="M308 96h96v32h64v32h32v32h32v64h32v128h-32v32h-32v-32h-32v-32h-32v-32h-32v-32h-32v-32h-32v-32h-32v-32h-32v-32h-32v-32h64v-32zM180 192h32v32h32v32h32v32h32v32h32v32h32v32h32v32h32v32h32v64h-64v32h-96v-32h-64v-32h-32v-32h-32v-64h-32v-128h32v-64zM116 0
h-64v64h32v32h32v32h-32v64h-32v256h32v64h32v32h32v32h32v32h96v32h160v-32h96v-32h64v32h32v32h64v-64h-32v-32h-32v-96h32v-256h-32v-64h-32v-32h-32v-32h-32v-32h-96v-32h-160v32h-96v32h-32v-32h-32v-32zM596 224h32v192h-32v128h-96v32h-64v-32h64v-96h64v-32h32v-192
zM212 64h64v32h-64v64h-64v64h-32v192h-32v-192h32v-64h32v-64h64v-32zM308 64v-32h96v32h-96zM404 576v32h-96v-32h96zM148 480h-32v-64h32v64zM564 160h32v64h-32v-64zM436 64h64v32h-64v-32zM212 576v-32h64v32h-64zM180 512h-32v-32h32v32zM212 544h-32v-32h32v32z
M500 96h32v32h-32v-32zM532 128h32v32h-32v-32z" />
    <glyph glyph-name="Thorn" unicode="&#xde;" horiz-adv-x="534" 
d="M153 224h224v32h32v96h-32v32h-224v-160zM153 0h-96v640h96v-160h256v-32h32v-32h32v-32h32v-160h-32v-32h-32v-32h-32v-32h-256v-128zM377 192h-256v224h256v32h-256v160h-32v-576h32v128h256v32zM441 256h32v96h-32v-96z" />
    <glyph glyph-name="germandbls" unicode="&#xdf;" horiz-adv-x="468" 
d="M141 0h-96v352h32v64h32v32h32v32h192v-32h32v-32h32v-96h-32v-64h-32v-32h32v-32h32v-32h32v-96h-32v-32h-32v-32h-192v64h128v32h32v64h-32v32h-32v32h-32v64h32v32h32v64h-32v32h-96v-32h-32v-384zM77 32h32v288h-32v-288zM333 352h32v32h-32v-32zM365 96h32v32h-32
v-32z" />
    <glyph glyph-name="ae" unicode="&#xe6;" horiz-adv-x="786" 
d="M456 288h192v64h-32v32h-128v-32h-32v-64zM168 96h128v32h32v96h-160v-32h-32v-64h32v-32zM296 0h-128v32h-64v32h-32v64h-32v96h32v32h32v32h224v64h-32v32h-128v-32h-96v64h32v32h64v32h128v-32h32v-32h32v-32h32v32h32v32h64v32h128v-32h64v-32h32v-64h32v-128h-288
v-96h32v-32h128v32h32v32h96v-64h-32v-32h-32v-32h-64v-32h-128v32h-64v32h-32v32h-32v-32h-32v-32h-32v-32zM360 128h64v224h-64v-224zM200 32h64v32h-64v-32zM264 416v32h-64v-32h64zM584 416v32h-64v-32h64zM520 64v-32h64v32h-64zM680 256h32v64h-32v-64zM104 192h-32
v-32h32v32z" />
    <glyph glyph-name="eth" unicode="&#xf0;" horiz-adv-x="517" 
d="M170 96h160v32h32v224h-32v32h-160v-32h-32v-224h32v-32zM330 0h-160v32h-64v32h-32v64h-32v224h32v64h32v32h64v32h160v-32h32v64h-32v32h-64v-32h-96v32h32v32h32v32h-96v64h128v-32h32v32h32v32h64v-64h-32v-64h32v-32h32v-32h32v-384h-32v-64h-32v-32h-64v-32z
M394 160h32v320h-32v-64h-32v-32h32v-224zM106 320h-32v-160h32v160zM298 416v32h-96v-32h96zM202 32h96v32h-96v-32zM330 608h-64v-32h64v32z" />
    <glyph glyph-name="divide" unicode="&#xf7;" horiz-adv-x="464" 
d="M275 352h-96v96h96v-96zM275 64h-96v96h96v-96zM435 224h-416v64h416v-64zM211 384h32v32h-32v-32zM211 96h32v32h-32v-32z" />
    <glyph glyph-name="oslash" unicode="&#xf8;" horiz-adv-x="544" 
d="M190 96h128v32h32v128h-32v-32h-32v-32h-32v-32h-32v-32h-32v-32zM158 160h32v32h32v32h32v32h32v32h32v32h32v32h-32v32h-128v-32h-32v-192zM62 -32h-32v64h32v32h32v64h-32v224h32v64h32v32h64v32h128v-32h64v-32h64v32h32v32h32v-64h-32v-32h-32v-256h-32v-64h-32v-32
h-64v-32h-128v32h-96v-32h-32v-32zM382 160h32v224h-32v-224zM94 160h32v160h-32v-160zM222 64v-32h64v32h-64zM222 416h64v32h-64v-32zM126 64h32v64h-32v-64z" />
    <glyph glyph-name="thorn" unicode="&#xfe;" horiz-adv-x="466" 
d="M149 160h160v32h32v64h-32v32h-160v-128zM149 0h-96v480h96v-128h224v-32h32v-32h32v-128h-32v-32h-32v-32h-224v-96zM85 32h32v416h-32v-416zM373 192h32v64h-32v-64z" />
    <glyph glyph-name="oe" unicode="&#x153;" horiz-adv-x="756" 
d="M426 288h192v64h-32v32h-128v-32h-32v-64zM170 96h128v32h32v224h-32v32h-128v-32h-32v-224h32v-32zM298 0h-128v32h-64v32h-32v64h-32v224h32v64h32v32h64v32h128v-32h64v-32h32v32h64v32h128v-32h64v-32h32v-64h32v-128h-288v-96h32v-32h128v32h32v32h96v-64h-32v-32
h-32v-32h-64v-32h-128v32h-64v32h-32v-32h-64v-32zM362 96h32v288h-32v-288zM106 320h-32v-160h32v160zM202 416h64v32h-64v-32zM554 416v32h-64v-32h64zM650 256h32v64h-32v-64zM202 32h64v32h-64v-32zM490 64v-32h64v32h-64z" />
    <glyph glyph-name="scaron" unicode="&#x161;" horiz-adv-x="435" 
d="M152 512h128v32h32v32h32v32h32v32h-64v-32h-64v-32h-64v32h-64v32h-64v-32h32v-32h32v-32h32v-32zM312 0h-192v32h-32v32h-32v64h32v32h32v-32h32v-32h32v-32h64v32h32v64h-32v32h-32v32h-64v32h-32v32h-32v32h-32v96h32v32h32v32h192v-32h32v-96h-64v32h-32v32h-64v-32
h-32v-32h32v-32h32v-32h64v-32h32v-32h32v-32h32v-128h-32v-32h-32v-32zM152 544v32h-64v32h-32l32 32h32v-32h32v-32h32v-32h-32zM344 576h-64v32h32v32h64l-32 -32v-32zM344 96h-32v64h32v-64zM120 128v-32h-32v64zM248 544v32h32v-32h-32zM88 384h32v-32h-32v32zM312 0
h-192v32h-32v32h-32v64h32v32h32v-32h32v-32h32v-32h64v32h32v64h-32v32h-32v32h-64v32h-32v32h-32v32h-32v96h32v32h32v32h192v-32h32v-96h-64v32h-32v32h-64v-32h-32v-32h32v-32h32v-32h64v-32h32v-32h32v-32h32v-128h-32v-32h-32v-32zM152 512h128v32h32v32h32v32h32v32
h-64v-32h-64v-32h-64v32h-64v32h-64v-32h32v-32h32v-32h32v-32z" />
    <glyph glyph-name="uni1E9E" unicode="&#x1e9e;" horiz-adv-x="574" 
d="M151 0h-96v512h32v64h32v32h64v32h224v-32h32v-64h32v-160h-32v-32h-32v-32h32v-32h32v-32h32v-32h32v-128h-32v-32h-32v-32h-32v-32h-256v96h224v32h32v64h-32v32h-32v32h-64v32h-32v64h32v32h32v32h32v96h-32v32h-160v-32h-32v-512zM87 32h32v448h-32v-448zM215 64v-32
h192v32h-192zM215 576h160v-32h32v32h-32v32h-160v-32zM407 416h32v96h-32v-96zM375 352h-32v-64h32v64zM471 128h32v64h-32v-64z" />
    <glyph glyph-name="emdash" unicode="&#x2014;" horiz-adv-x="674" 
d="M638 320h-608v64h608v-64z" />
    <glyph glyph-name="quoteleft" unicode="&#x2018;" horiz-adv-x="187" 
d="M128 480h-96v128h32v32h64v-32h-32v-64h32v-64z" />
    <glyph glyph-name="quoteright" unicode="&#x2019;" horiz-adv-x="187" 
d="M96 480h-64v32h32v64h-32v64h96v-128h-32v-32z" />
    <glyph glyph-name="quotesinglbase" unicode="&#x201a;" horiz-adv-x="180" 
d="M91 -96h-64v32h32v32h32v32h-64v96h96v-160h-32v-32zM91 32v32h-32v-32h32z" />
    <glyph glyph-name="quotereversed" unicode="&#x201b;" horiz-adv-x="187" 
d="M128 448h-64v32h-32v160h96v-96h-64v-32h32v-32h32v-32zM64 576h32v32h-32v-32z" />
    <glyph glyph-name="quotedblleft" unicode="&#x201c;" horiz-adv-x="315" 
d="M128 480h-96v128h32v32h64v-32h-32v-64h32v-64zM256 480h-96v128h32v32h64v-32h-32v-64h32v-64z" />
    <glyph glyph-name="quotedblright" unicode="&#x201d;" horiz-adv-x="315" 
d="M96 480h-64v32h32v64h-32v64h96v-128h-32v-32zM224 480h-64v32h32v64h-32v64h96v-128h-32v-32z" />
    <glyph glyph-name="quotedblbase" unicode="&#x201e;" horiz-adv-x="340" 
d="M91 -96h-64v32h32v32h32v32h-64v96h96v-160h-32v-32zM251 -96h-64v32h32v32h32v32h-64v96h96v-160h-32v-32zM91 32v32h-32v-32h32zM251 32v32h-32v-32h32z" />
    <glyph glyph-name="dagger" unicode="&#x2020;" horiz-adv-x="348" 
d="M193 0h-64v448h-96v64h96v128h64v-128h96v-64h-96v-448z" />
    <glyph glyph-name="bullet" unicode="&#x2022;" horiz-adv-x="231" 
d="M163 288h-96v32h-32v96h32v32h96v-32h32v-96h-32v-32zM99 320h32v32h32v32h-32v32h-32v-32h-32v-32h32v-32z" />
    <glyph glyph-name="ellipsis" unicode="&#x2026;" horiz-adv-x="427" 
d="M282 0h-96v96h96v-96zM122 0h-96v96h96v-96zM442 0h-96v96h96v-96zM378 32h32v32h-32v-32zM58 32h32v32h-32v-32zM218 32h32v32h-32v-32z" />
    <glyph glyph-name="guilsinglleft" unicode="&#x2039;" horiz-adv-x="438" 
d="M373 0h-32v32h-32v32h-32v32h-32v32h-32v32h-32v32h-32v32h-32v32h-32v32h-32v32h-32v64h32v32h32v32h32v32h32v32h32v32h32v32h32v32h32v32h32v32h32v32h32v-64h-32v-32h-32v-32h-32v-32h-32v-32h-32v-32h-32v-32h-32v-32h-32v-32h-32v-64h32v-32h32v-32h32v-32h32v-32
h32v-32h32v-32h32v-32h32v-32h32v-64z" />
    <glyph glyph-name="guilsinglright" unicode="&#x203a;" horiz-adv-x="416" 
d="M67 0h-32v64h32v32h32v32h32v32h32v32h32v32h32v32h32v32h32v32h32v64h-32v32h-32v32h-32v32h-32v32h-32v32h-32v32h-32v32h-32v32h-32v64h32v-32h32v-32h32v-32h32v-32h32v-32h32v-32h32v-32h32v-32h32v-32h32v-32h32v-64h-32v-32h-32v-32h-32v-32h-32v-32h-32v-32h-32
v-32h-32v-32h-32v-32h-32v-32h-32v-32zM35 32v32h32v32h32v32h32v32h32v32h32v32h32v32h32v32h32v32h32v32v32h-32v32h-32v32h-32v32h-32v32h-32v32h-32v32h-32v32h-32v32h-32v64l32 -32h32v-32h32v-32h32v-32h32v-32h32v-32h32v-32h32v-32h32v-32h32v-128h-32v-32h-32v-32
h-32v-32h-32v-32h-32v-32h-32v-32h-32v-32h-32v-32h-64zM67 0h-32v64h32v32h32v32h32v32h32v32h32v32h32v32h32v32h32v32h32v64h-32v32h-32v32h-32v32h-32v32h-32v32h-32v32h-32v32h-32v32h-32v64h32v-32h32v-32h32v-32h32v-32h32v-32h32v-32h32v-32h32v-32h32v-32h32v-32
h32v-64h-32v-32h-32v-32h-32v-32h-32v-32h-32v-32h-32v-32h-32v-32h-32v-32h-32v-32h-32v-32z" />
    <glyph glyph-name="Euro" unicode="&#x20ac;" horiz-adv-x="717" 
d="M481 0h-160v32h-96v32h-32v32h-32v32h-32v64h-32v32h-64v64h64v64h-64v64h64v32h32v64h32v32h32v32h32v32h96v32h160v-32h96v-32h32v-64h32v-32h32v-32h-128v32h-32v32h-64v32h-96v-32h-64v-32h-32v-32h-32v-32h256v-64h-288v-64h288v-64h-256v-32h32v-32h32v-32h64v-32
h96v32h64v32h32v32h128v-32h-32v-32h-32v-64h-32v-32h-96v-32zM321 64v32h-64v32h-32v32h-32v96h-32v128h32v96h-32v-64h-32v-192h32v-64h32v-32h32v-32h32v-32h64zM353 32h96v32h-96v-32zM449 576v32h-96v-32h96zM481 576v-32h64v-32h32v32h-32v32h-64zM257 544h64v32h-64
v-32zM481 64h64v32h-64v-32zM225 512h32v32h-32v-32zM545 96h32v32h-32v-32zM193 480h32v32h-32v-32z" />
    <glyph glyph-name="trademark" unicode="&#x2122;" horiz-adv-x="764" 
d="M193 224h-64v352h-128v64h320v-64h-128v-352zM417 224h-64v416h64v-64h32v-32h32v-64h32v-64h32v64h32v64h32v32h32v64h64v-416h-64v256h-32v-64h-32v-64h-32v-64h-32v64h-32v64h-32v64h-32v-256zM641 512h32v32h-32v-32zM385 512h32v32h-32v-32z" />
    <glyph glyph-name="Aacute" unicode="&#xc1;" horiz-adv-x="674" 
d="M210 288h224v32h-32v64h-32v64h-32v64h-32v-64h-32v-64h-32v-64h-32v-32zM114 0h-96v96h32v64h32v96h32v64h32v64h32v64h32v64h32v64h32v64h96v-64h32v-64h32v-64h32v-64h32v-64h32v-64h32v-96h32v-64h32v-96h-96v64h-32v64h-32v64h-288v-64h-32v-64h-32v-64zM466 256
h-288v32h-32v-64h352v-64h32v64h-32v64h-32v-32zM114 160h32v64h-32v-64zM306 544h32v64h-32v-64zM562 32h32v32h-32v-32zM530 96h32v32h-32v-32zM50 32h32v32h-32v-32zM82 96h32v32h-32v-32zM353 736h-96v32h32v32h32v32h96v-32h-32v-32h-32v-32z" />
    <glyph glyph-name="Adieresis" unicode="&#xc4;" horiz-adv-x="674" 
d="M210 288h224v32h-32v64h-32v64h-32v64h-32v-64h-32v-64h-32v-64h-32v-32zM114 0h-96v96h32v64h32v96h32v64h32v64h32v64h32v64h32v64h32v64h96v-64h32v-64h32v-64h32v-64h32v-64h32v-64h32v-96h32v-64h32v-96h-96v64h-32v64h-32v64h-288v-64h-32v-64h-32v-64zM466 256
h-288v32h-32v-64h352v-64h32v64h-32v64h-32v-32zM114 160h32v64h-32v-64zM306 544h32v64h-32v-64zM562 32h32v32h-32v-32zM530 96h32v32h-32v-32zM50 32h32v32h-32v-32zM82 96h32v32h-32v-32zM289 736h-96v96h96v-96zM481 736h-96v96h96v-96zM417 768h32v32h-32v-32z
M225 768h32v32h-32v-32z" />
    <glyph glyph-name="Ccedilla" unicode="&#xc7;" horiz-adv-x="661" 
d="M428 0h-160v32h-96v32h-32v32h-32v32h-32v64h-32v256h32v64h32v32h32v32h32v32h96v32h160v-32h96v-32h32v-64h32v-32h32v-32h-128v32h-32v32h-64v32h-96v-32h-64v-32h-32v-32h-32v-64h-32v-128h32v-64h32v-32h32v-32h64v-32h96v32h64v32h32v32h128v-32h-32v-32h-32v-64
h-32v-32h-96v-32zM268 64v32h-64v32h-32v32h-32v64h-32v192h-32v-192h32v-64h32v-32h32v-32h32v-32h64zM300 32h96v32h-96v-32zM396 576v32h-96v-32h96zM428 576v-32h64v-32h32v32h-32v32h-64zM204 544h64v32h-64v-32zM428 64h64v32h-64v-32zM108 416h32v64h-32v-64z
M172 512h32v32h-32v-32zM492 96h32v32h-32v-32zM140 480h32v32h-32v-32zM394 -192h-128v32h-32v64h32v-32h64v64h-64v64h32v-32h96v-32h32v-96h-32v-32zM362 -128h32v32h-32v-32z" />
    <glyph glyph-name="Eacute" unicode="&#xc9;" horiz-adv-x="500" 
d="M441 0h-384v640h384v-96h-288v-160h288v-96h-288v-192h288v-96zM89 32h320v32h-288v256h288v32h-288v224h288v32h-320v-576zM266 736h-96v32h32v32h32v32h96v-32h-32v-32h-32v-32z" />
    <glyph glyph-name="Edieresis" unicode="&#xcb;" horiz-adv-x="500" 
d="M441 0h-384v640h384v-96h-288v-160h288v-96h-288v-192h288v-96zM89 32h320v32h-288v256h288v32h-288v224h288v32h-320v-576zM202 736h-96v96h96v-96zM394 736h-96v96h96v-96zM330 768h32v32h-32v-32zM138 768h32v32h-32v-32z" />
    <glyph glyph-name="Iacute" unicode="&#xcd;" 
d="M153 0h-96v640h96v-640zM89 32h32v576h-32v-576zM122 736h-96v32h32v32h32v32h96v-32h-32v-32h-32v-32z" />
    <glyph glyph-name="Oacute" unicode="&#xd3;" horiz-adv-x="698" 
d="M300 96h96v32h64v32h32v32h32v64h32v128h-32v64h-32v32h-32v32h-64v32h-96v-32h-64v-32h-32v-32h-32v-64h-32v-128h32v-64h32v-32h32v-32h64v-32zM428 0h-160v32h-96v32h-32v32h-32v32h-32v64h-32v256h32v64h32v32h32v32h32v32h96v32h160v-32h96v-32h32v-32h32v-32h32
v-64h32v-256h-32v-64h-32v-32h-32v-32h-32v-32h-96v-32zM588 224h32v192h-32v64h-32v32h-32v32h-32v32h-64v-32h64v-32h32v-32h32v-64h32v-192zM204 64h64v32h-64v32h-32v32h-32v64h-32v192h-32v-192h32v-64h32v-32h32v-32h32v-32zM300 32h96v32h-96v-32zM396 576v32h-96
v-32h96zM428 64h64v32h-64v-32zM204 576v-32h64v32h-64zM556 160h32v64h-32v-64zM140 480h-32v-64h32v64zM524 128h32v32h-32v-32zM204 544h-32v-32h32v32zM492 96h32v32h-32v-32zM172 512h-32v-32h32v32zM365 736h-96v32h32v32h32v32h96v-32h-32v-32h-32v-32z" />
    <glyph glyph-name="Odieresis" unicode="&#xd6;" horiz-adv-x="698" 
d="M300 96h96v32h64v32h32v32h32v64h32v128h-32v64h-32v32h-32v32h-64v32h-96v-32h-64v-32h-32v-32h-32v-64h-32v-128h32v-64h32v-32h32v-32h64v-32zM428 0h-160v32h-96v32h-32v32h-32v32h-32v64h-32v256h32v64h32v32h32v32h32v32h96v32h160v-32h96v-32h32v-32h32v-32h32
v-64h32v-256h-32v-64h-32v-32h-32v-32h-32v-32h-96v-32zM588 224h32v192h-32v64h-32v32h-32v32h-32v32h-64v-32h64v-32h32v-32h32v-64h32v-192zM204 64h64v32h-64v32h-32v32h-32v64h-32v192h-32v-192h32v-64h32v-32h32v-32h32v-32zM300 32h96v32h-96v-32zM396 576v32h-96
v-32h96zM428 64h64v32h-64v-32zM204 576v-32h64v32h-64zM556 160h32v64h-32v-64zM140 480h-32v-64h32v64zM524 128h32v32h-32v-32zM204 544h-32v-32h32v32zM492 96h32v32h-32v-32zM172 512h-32v-32h32v32zM301 736h-96v96h96v-96zM493 736h-96v96h96v-96zM429 768h32v32h-32
v-32zM237 768h32v32h-32v-32z" />
    <glyph glyph-name="circumflex" unicode="&#x2c6;" horiz-adv-x="470" 
d="M143 512h-64v32h32v32h32v32h32v32h128v-32h32v-32h32v-32h32v-32h-64v32h-64v32h-64v-32h-64v-32z" />
    <glyph glyph-name="Icircumflex" unicode="&#xce;" 
d="M153 0h-96v640h96v-640zM89 32h32v576h-32v-576zM10 672h-64v32h32v32h32v32h32v32h128v-32h32v-32h32v-32h32v-32h-64v32h-64v32h-64v-32h-64v-32z" />
    <glyph glyph-name="Ocircumflex" unicode="&#xd4;" horiz-adv-x="698" 
d="M300 96h96v32h64v32h32v32h32v64h32v128h-32v64h-32v32h-32v32h-64v32h-96v-32h-64v-32h-32v-32h-32v-64h-32v-128h32v-64h32v-32h32v-32h64v-32zM428 0h-160v32h-96v32h-32v32h-32v32h-32v64h-32v256h32v64h32v32h32v32h32v32h96v32h160v-32h96v-32h32v-32h32v-32h32
v-64h32v-256h-32v-64h-32v-32h-32v-32h-32v-32h-96v-32zM588 224h32v192h-32v64h-32v32h-32v32h-32v32h-64v-32h64v-32h32v-32h32v-64h32v-192zM204 64h64v32h-64v32h-32v32h-32v64h-32v192h-32v-192h32v-64h32v-32h32v-32h32v-32zM300 32h96v32h-96v-32zM396 576v32h-96
v-32h96zM428 64h64v32h-64v-32zM204 576v-32h64v32h-64zM556 160h32v64h-32v-64zM140 480h-32v-64h32v64zM524 128h32v32h-32v-32zM204 544h-32v-32h32v32zM492 96h32v32h-32v-32zM172 512h-32v-32h32v32zM253 672h-64v32h32v32h32v32h32v32h128v-32h32v-32h32v-32h32v-32
h-64v32h-64v32h-64v-32h-64v-32z" />
    <glyph glyph-name="Uacute" unicode="&#xda;" horiz-adv-x="594" 
d="M407 0h-224v32h-64v32h-32v64h-32v512h96v-448h32v-64h32v-32h160v32h32v64h32v448h96v-512h-32v-64h-32v-32h-64v-32zM183 64v32h-32v64h-32v448h-32v-448h32v-64h32v-32h32zM471 160h32v448h-32v-448zM215 32h160v32h-160v-32zM439 96h32v64h-32v-64zM407 64h32v32h-32
v-32zM313 736h-96v32h32v32h32v32h96v-32h-32v-32h-32v-32z" />
    <glyph glyph-name="Udieresis" unicode="&#xdc;" horiz-adv-x="594" 
d="M407 0h-224v32h-64v32h-32v64h-32v512h96v-448h32v-64h32v-32h160v32h32v64h32v448h96v-512h-32v-64h-32v-32h-64v-32zM183 64v32h-32v64h-32v448h-32v-448h32v-64h32v-32h32zM471 160h32v448h-32v-448zM215 32h160v32h-160v-32zM439 96h32v64h-32v-64zM407 64h32v32h-32
v-32zM249 736h-96v96h96v-96zM441 736h-96v96h96v-96zM377 768h32v32h-32v-32zM185 768h32v32h-32v-32z" />
    <glyph glyph-name="Yacute" unicode="&#xdd;" horiz-adv-x="601" 
d="M348 0h-96v224h-32v64h-32v64h-32v64h-32v64h-32v64h-32v64h-32v32h128v-64h32v-64h32v-64h32v-64h32v-64h32v64h32v64h32v64h32v64h32v64h128v-32h-32v-64h-32v-64h-32v-64h-32v-64h-32v-64h-32v-64h-32v-224zM284 32h32v224h32v32h-96v-32h32v-224zM156 512v32h-32v-32
h32zM188 448v32h-32v-32h32zM220 384v32h-32v-32h32zM252 320v32h-32v-32h32zM380 384h32v32h-32v-32zM476 576h32v32h-32v-32zM444 512h32v32h-32v-32zM412 448h32v32h-32v-32zM124 576v32h-32v-32h32zM348 320h32v32h-32v-32zM316 736h-96v32h32v32h32v32h96v-32h-32v-32
h-32v-32z" />
    <glyph glyph-name="aacute" unicode="&#xe1;" horiz-adv-x="509" 
d="M170 96h128v32h32v32h32v160h-32v32h-32v32h-128v-32h-32v-224h32v-32zM298 0h-128v32h-64v32h-32v64h-32v224h32v64h32v32h64v32h128v-32h32v-32h32v64h96v-480h-96v64h-32v-32h-32v-32zM362 96h32v-64h32v416h-32v-64h-32v-32h32v-224h-32v-32zM106 320h-32v-160h32
v160zM202 416h64v32h-64v-32zM202 32h64v32h-64v-32zM270 576h-96v32h32v32h32v32h96v-32h-32v-32h-32v-32z" />
    <glyph glyph-name="acircumflex" unicode="&#xe2;" horiz-adv-x="509" 
d="M170 96h128v32h32v32h32v160h-32v32h-32v32h-128v-32h-32v-224h32v-32zM298 0h-128v32h-64v32h-32v64h-32v224h32v64h32v32h64v32h128v-32h32v-32h32v64h96v-480h-96v64h-32v-32h-32v-32zM362 96h32v-64h32v416h-32v-64h-32v-32h32v-224h-32v-32zM106 320h-32v-160h32
v160zM202 416h64v32h-64v-32zM202 32h64v32h-64v-32zM158 512h-64v32h32v32h32v32h32v32h128v-32h32v-32h32v-32h32v-32h-64v32h-64v32h-64v-32h-64v-32z" />
    <glyph glyph-name="adieresis" unicode="&#xe4;" horiz-adv-x="509" 
d="M170 96h128v32h32v32h32v160h-32v32h-32v32h-128v-32h-32v-224h32v-32zM298 0h-128v32h-64v32h-32v64h-32v224h32v64h32v32h64v32h128v-32h32v-32h32v64h96v-480h-96v64h-32v-32h-32v-32zM362 96h32v-64h32v416h-32v-64h-32v-32h32v-224h-32v-32zM106 320h-32v-160h32
v160zM202 416h64v32h-64v-32zM202 32h64v32h-64v-32zM206 576h-96v96h96v-96zM398 576h-96v96h96v-96zM334 608h32v32h-32v-32zM142 608h32v32h-32v-32z" />
    <glyph glyph-name="ccedilla" unicode="&#xe7;" horiz-adv-x="441" 
d="M298 0h-128v32h-64v32h-32v64h-32v224h32v64h32v32h64v32h128v-32h64v-32h32v-96h-64v32h-32v32h-128v-32h-32v-224h32v-32h128v32h32v32h64v-96h-32v-32h-64v-32zM106 320h-32v-160h32v160zM202 32h64v32h-64v-32zM266 416v32h-64v-32h64zM284 -192h-128v32h-32v64h32
v-32h64v64h-64v64h32v-32h96v-32h32v-96h-32v-32zM252 -128h32v32h-32v-32z" />
    <glyph glyph-name="cacute" unicode="&#x107;" horiz-adv-x="441" 
d="M298 0h-128v32h-64v32h-32v64h-32v224h32v64h32v32h64v32h128v-32h64v-32h32v-96h-64v32h-32v32h-128v-32h-32v-224h32v-32h128v32h32v32h64v-96h-32v-32h-64v-32zM106 320h-32v-160h32v160zM202 32h64v32h-64v-32zM266 416v32h-64v-32h64zM236 576h-96v32h32v32h32v32
h96v-32h-32v-32h-32v-32z" />
    <glyph glyph-name="Cacute" unicode="&#x106;" horiz-adv-x="661" 
d="M428 0h-160v32h-96v32h-32v32h-32v32h-32v64h-32v256h32v64h32v32h32v32h32v32h96v32h160v-32h96v-32h32v-64h32v-32h32v-32h-128v32h-32v32h-64v32h-96v-32h-64v-32h-32v-32h-32v-64h-32v-128h32v-64h32v-32h32v-32h64v-32h96v32h64v32h32v32h128v-32h-32v-32h-32v-64
h-32v-32h-96v-32zM268 64v32h-64v32h-32v32h-32v64h-32v192h-32v-192h32v-64h32v-32h32v-32h32v-32h64zM300 32h96v32h-96v-32zM396 576v32h-96v-32h96zM428 576v-32h64v-32h32v32h-32v32h-64zM204 544h64v32h-64v-32zM428 64h64v32h-64v-32zM108 416h32v64h-32v-64z
M172 512h32v32h-32v-32zM492 96h32v32h-32v-32zM140 480h32v32h-32v-32zM346 736h-96v32h32v32h32v32h96v-32h-32v-32h-32v-32z" />
    <glyph glyph-name="eacute" unicode="&#xe9;" horiz-adv-x="468" 
d="M138 288h192v64h-32v32h-128v-32h-32v-64zM298 0h-128v32h-64v32h-32v64h-32v224h32v64h32v32h64v32h128v-32h64v-32h32v-64h32v-128h-288v-96h32v-32h128v32h32v32h96v-64h-32v-32h-32v-32h-64v-32zM74 160h32v160h-32v-160zM266 416v32h-64v-32h64zM362 256h32v64h-32
v-64zM202 32h64v32h-64v-32zM250 576h-96v32h32v32h32v32h96v-32h-32v-32h-32v-32z" />
    <glyph glyph-name="edieresis" unicode="&#xeb;" horiz-adv-x="468" 
d="M138 288h192v64h-32v32h-128v-32h-32v-64zM298 0h-128v32h-64v32h-32v64h-32v224h32v64h32v32h64v32h128v-32h64v-32h32v-64h32v-128h-288v-96h32v-32h128v32h32v32h96v-64h-32v-32h-32v-32h-64v-32zM74 160h32v160h-32v-160zM266 416v32h-64v-32h64zM362 256h32v64h-32
v-64zM202 32h64v32h-64v-32zM186 576h-96v96h96v-96zM378 576h-96v96h96v-96zM314 608h32v32h-32v-32zM122 608h32v32h-32v-32z" />
    <glyph glyph-name="oacute" unicode="&#xf3;" horiz-adv-x="467" 
d="M170 96h128v32h32v224h-32v32h-128v-32h-32v-224h32v-32zM298 0h-128v32h-64v32h-32v64h-32v224h32v64h32v32h64v32h128v-32h64v-32h32v-64h32v-224h-32v-64h-32v-32h-64v-32zM362 160h32v160h-32v-160zM106 320h-32v-160h32v160zM202 416h64v32h-64v-32zM202 32h64v32
h-64v-32zM249 576h-96v32h32v32h32v32h96v-32h-32v-32h-32v-32z" />
    <glyph glyph-name="ocircumflex" unicode="&#xf4;" horiz-adv-x="467" 
d="M170 96h128v32h32v224h-32v32h-128v-32h-32v-224h32v-32zM298 0h-128v32h-64v32h-32v64h-32v224h32v64h32v32h64v32h128v-32h64v-32h32v-64h32v-224h-32v-64h-32v-32h-64v-32zM362 160h32v160h-32v-160zM106 320h-32v-160h32v160zM202 416h64v32h-64v-32zM202 32h64v32
h-64v-32zM138 512h-64v32h32v32h32v32h32v32h128v-32h32v-32h32v-32h32v-32h-64v32h-64v32h-64v-32h-64v-32z" />
    <glyph glyph-name="odieresis" unicode="&#xf6;" horiz-adv-x="467" 
d="M170 96h128v32h32v224h-32v32h-128v-32h-32v-224h32v-32zM298 0h-128v32h-64v32h-32v64h-32v224h32v64h32v32h64v32h128v-32h64v-32h32v-64h32v-224h-32v-64h-32v-32h-64v-32zM362 160h32v160h-32v-160zM106 320h-32v-160h32v160zM202 416h64v32h-64v-32zM202 32h64v32
h-64v-32zM185 576h-96v96h96v-96zM377 576h-96v96h96v-96zM313 608h32v32h-32v-32zM121 608h32v32h-32v-32z" />
    <glyph glyph-name="uacute" unicode="&#xfa;" horiz-adv-x="487" 
d="M276 0h-160v32h-32v32h-32v416h96v-352h32v-32h96v32h32v32h32v320h96v-480h-96v64h-32v-32h-32v-32zM148 32h96v32h-96v32h-32v352h-32v-352h32v-32h32v-32zM340 96h32v-64h32v416h-32v-320h-32v-32zM259 576h-96v32h32v32h32v32h96v-32h-32v-32h-32v-32z" />
    <glyph glyph-name="udieresis" unicode="&#xfc;" horiz-adv-x="487" 
d="M276 0h-160v32h-32v32h-32v416h96v-352h32v-32h96v32h32v32h32v320h96v-480h-96v64h-32v-32h-32v-32zM148 32h96v32h-96v32h-32v352h-32v-352h32v-32h32v-32zM340 96h32v-64h32v416h-32v-320h-32v-32zM195 576h-96v96h96v-96zM387 576h-96v96h96v-96zM323 608h32v32h-32
v-32zM131 608h32v32h-32v-32z" />
    <glyph glyph-name="yacute" unicode="&#xfd;" horiz-adv-x="460" 
d="M230 -192h-96v96h32v96h32v64h-32v64h-32v64h-32v96h-32v96h-32v96h96v-96h32v-96h32v-96h32v-32h32v128h32v96h32v96h96v-96h-32v-96h-32v-96h-32v-96h-32v-96h-32v-96h-32v-96zM230 32h32v96h-64v-32h32v-64zM166 -160h32v32h-32v-32zM102 416v32h-32v-32h32zM134 320
v32h-32v-32h32zM166 224v32h-32v-32h32zM358 416h32v32h-32v-32zM326 320h32v32h-32v-32zM294 224h32v32h-32v-32zM198 -64h32v32h-32v-32zM246 576h-96v32h32v32h32v32h96v-32h-32v-32h-32v-32z" />
    <glyph glyph-name="Agrave" unicode="&#xc0;" horiz-adv-x="674" 
d="M210 288h224v32h-32v64h-32v64h-32v64h-32v-64h-32v-64h-32v-64h-32v-32zM114 0h-96v96h32v64h32v96h32v64h32v64h32v64h32v64h32v64h32v64h96v-64h32v-64h32v-64h32v-64h32v-64h32v-64h32v-96h32v-64h32v-96h-96v64h-32v64h-32v64h-288v-64h-32v-64h-32v-64zM466 256
h-288v32h-32v-64h352v-64h32v64h-32v64h-32v-32zM114 160h32v64h-32v-64zM306 544h32v64h-32v-64zM562 32h32v32h-32v-32zM530 96h32v32h-32v-32zM50 32h32v32h-32v-32zM82 96h32v32h-32v-32zM417 704h-96v32h-32v32h-32v32h96v-32h32v-32h32v-32z" />
    <glyph glyph-name="Aring" unicode="&#xc5;" horiz-adv-x="674" 
d="M210 288h224v32h-32v64h-32v64h-32v64h-32v-64h-32v-64h-32v-64h-32v-32zM114 0h-96v96h32v64h32v96h32v64h32v64h32v64h32v64h32v64h32v64h96v-64h32v-64h32v-64h32v-64h32v-64h32v-64h32v-96h32v-64h32v-96h-96v64h-32v64h-32v64h-288v-64h-32v-64h-32v-64zM466 256
h-288v32h-32v-64h352v-64h32v64h-32v64h-32v-32zM114 160h32v64h-32v-64zM306 544h32v64h-32v-64zM562 32h32v32h-32v-32zM530 96h32v32h-32v-32zM50 32h32v32h-32v-32zM82 96h32v32h-32v-32z" />
    <glyph glyph-name="Egrave" unicode="&#xc8;" horiz-adv-x="500" 
d="M441 0h-384v640h384v-96h-288v-160h288v-96h-288v-192h288v-96zM89 32h320v32h-288v256h288v32h-288v224h288v32h-320v-576zM330 704h-96v32h-32v32h-32v32h96v-32h32v-32h32v-32z" />
    <glyph glyph-name="Ecircumflex" unicode="&#xca;" horiz-adv-x="500" 
d="M441 0h-384v640h384v-96h-288v-160h288v-96h-288v-192h288v-96zM89 32h320v32h-288v256h288v32h-288v224h288v32h-320v-576zM154 672h-64v32h32v32h32v32h32v32h128v-32h32v-32h32v-32h32v-32h-64v32h-64v32h-64v-32h-64v-32z" />
    <glyph glyph-name="ugrave" unicode="&#xf9;" horiz-adv-x="487" 
d="M276 0h-160v32h-32v32h-32v416h96v-352h32v-32h96v32h32v32h32v320h96v-480h-96v64h-32v-32h-32v-32zM148 32h96v32h-96v32h-32v352h-32v-352h32v-32h32v-32zM340 96h32v-64h32v416h-32v-320h-32v-32zM323 544h-96v32h-32v32h-32v32h96v-32h32v-32h32v-32z" />
    <glyph glyph-name="Ugrave" unicode="&#xd9;" horiz-adv-x="594" 
d="M407 0h-224v32h-64v32h-32v64h-32v512h96v-448h32v-64h32v-32h160v32h32v64h32v448h96v-512h-32v-64h-32v-32h-64v-32zM183 64v32h-32v64h-32v448h-32v-448h32v-64h32v-32h32zM471 160h32v448h-32v-448zM215 32h160v32h-160v-32zM439 96h32v64h-32v-64zM407 64h32v32h-32
v-32zM377 704h-96v32h-32v32h-32v32h96v-32h32v-32h32v-32z" />
    <glyph glyph-name="tilde" unicode="&#x2dc;" horiz-adv-x="452" 
d="M67 575h-32v96h32v32h32v32h96v-32h64v-32h96v32h32v32h32v-96h-32v-32h-32v-32h-96v32h-64v32h-96v-32h-32v-32zM163 671v32h-32v-32h32zM291 639v-32h32v32h-32z" />
    <glyph glyph-name="Ntilde" unicode="&#xd1;" horiz-adv-x="628" 
d="M153 0h-96v640h160v-64h32v-64h32v-64h32v-64h32v-64h32v-64h32v-64h32v-64h32v512h96v-640h-160v64h-32v64h-32v64h-32v64h-32v64h-32v64h-32v64h-32v64h-32v-512zM89 32h32v512h64v64h-96v-576zM441 96v-64h96v576h-32v-512h-64zM154 735h-32v96h32v32h32v32h96v-32h64
v-32h96v32h32v32h32v-96h-32v-32h-32v-32h-96v32h-64v32h-96v-32h-32v-32zM250 831v32h-32v-32h32zM378 799v-32h32v32h-32z" />
    <glyph glyph-name="ntilde" unicode="&#xf1;" horiz-adv-x="485" 
d="M149 0h-96v480h96v-64h32v32h32v32h96v-32h64v-32h32v-64h32v-352h-96v352h-32v32h-96v-32h-32v-32h-32v-320zM85 32h32v320h32v32h-32v64h-32v-416zM373 32h32v288h-32v-288zM277 416v32h-32v-32h32zM82 575h-32v96h32v32h32v32h96v-32h64v-32h96v32h32v32h32v-96h-32
v-32h-32v-32h-96v32h-64v32h-96v-32h-32v-32zM178 671v32h-32v-32h32zM306 639v-32h32v32h-32z" />
    <glyph glyph-name="ograve" unicode="&#xf2;" horiz-adv-x="467" 
d="M170 96h128v32h32v224h-32v32h-128v-32h-32v-224h32v-32zM298 0h-128v32h-64v32h-32v64h-32v224h32v64h32v32h64v32h128v-32h64v-32h32v-64h32v-224h-32v-64h-32v-32h-64v-32zM362 160h32v160h-32v-160zM106 320h-32v-160h32v160zM202 416h64v32h-64v-32zM202 32h64v32
h-64v-32zM313 544h-96v32h-32v32h-32v32h96v-32h32v-32h32v-32z" />
    <glyph glyph-name="Ograve" unicode="&#xd2;" horiz-adv-x="698" 
d="M300 96h96v32h64v32h32v32h32v64h32v128h-32v64h-32v32h-32v32h-64v32h-96v-32h-64v-32h-32v-32h-32v-64h-32v-128h32v-64h32v-32h32v-32h64v-32zM428 0h-160v32h-96v32h-32v32h-32v32h-32v64h-32v256h32v64h32v32h32v32h32v32h96v32h160v-32h96v-32h32v-32h32v-32h32
v-64h32v-256h-32v-64h-32v-32h-32v-32h-32v-32h-96v-32zM588 224h32v192h-32v64h-32v32h-32v32h-32v32h-64v-32h64v-32h32v-32h32v-64h32v-192zM204 64h64v32h-64v32h-32v32h-32v64h-32v192h-32v-192h32v-64h32v-32h32v-32h32v-32zM300 32h96v32h-96v-32zM396 576v32h-96
v-32h96zM428 64h64v32h-64v-32zM204 576v-32h64v32h-64zM556 160h32v64h-32v-64zM140 480h-32v-64h32v64zM524 128h32v32h-32v-32zM204 544h-32v-32h32v32zM492 96h32v32h-32v-32zM172 512h-32v-32h32v32zM429 704h-96v32h-32v32h-32v32h96v-32h32v-32h32v-32z" />
    <glyph glyph-name="Idieresis" unicode="&#xcf;" 
d="M153 0h-96v640h96v-640zM89 32h32v576h-32v-576zM58 736h-96v96h96v-96zM250 736h-96v96h96v-96zM186 768h32v32h-32v-32zM-6 768h32v32h-32v-32z" />
    <glyph glyph-name="dotlessi" unicode="&#x131;" 
d="M153 0h-96v480h96v-480zM89 32h32v416h-32v-416z" />
    <glyph glyph-name="idieresis" unicode="&#xef;" 
d="M153 0h-96v480h96v-480zM89 32h32v416h-32v-416zM58 576h-96v96h96v-96zM250 576h-96v96h96v-96zM186 608h32v32h-32v-32zM-6 608h32v32h-32v-32z" />
    <glyph glyph-name="iacute" unicode="&#xed;" 
d="M153 0h-96v480h96v-480zM89 32h32v416h-32v-416zM122 576h-96v32h32v32h32v32h96v-32h-32v-32h-32v-32z" />
    <glyph glyph-name="icircumflex" unicode="&#xee;" 
d="M153 0h-96v480h96v-480zM89 32h32v416h-32v-416zM10 512h-64v32h32v32h32v32h32v32h128v-32h32v-32h32v-32h32v-32h-64v32h-64v32h-64v-32h-64v-32z" />
    <glyph glyph-name="otilde" unicode="&#xf5;" horiz-adv-x="467" 
d="M170 96h128v32h32v224h-32v32h-128v-32h-32v-224h32v-32zM298 0h-128v32h-64v32h-32v64h-32v224h32v64h32v32h64v32h128v-32h64v-32h32v-64h32v-224h-32v-64h-32v-32h-64v-32zM362 160h32v160h-32v-160zM106 320h-32v-160h32v160zM202 416h64v32h-64v-32zM202 32h64v32
h-64v-32zM73 575h-32v96h32v32h32v32h96v-32h64v-32h96v32h32v32h32v-96h-32v-32h-32v-32h-96v32h-64v32h-96v-32h-32v-32zM169 671v32h-32v-32h32zM297 639v-32h32v32h-32z" />
    <glyph glyph-name="Otilde" unicode="&#xd5;" horiz-adv-x="698" 
d="M300 96h96v32h64v32h32v32h32v64h32v128h-32v64h-32v32h-32v32h-64v32h-96v-32h-64v-32h-32v-32h-32v-64h-32v-128h32v-64h32v-32h32v-32h64v-32zM428 0h-160v32h-96v32h-32v32h-32v32h-32v64h-32v256h32v64h32v32h32v32h32v32h96v32h160v-32h96v-32h32v-32h32v-32h32
v-64h32v-256h-32v-64h-32v-32h-32v-32h-32v-32h-96v-32zM588 224h32v192h-32v64h-32v32h-32v32h-32v32h-64v-32h64v-32h32v-32h32v-64h32v-192zM204 64h64v32h-64v32h-32v32h-32v64h-32v192h-32v-192h32v-64h32v-32h32v-32h32v-32zM300 32h96v32h-96v-32zM396 576v32h-96
v-32h96zM428 64h64v32h-64v-32zM204 576v-32h64v32h-64zM556 160h32v64h-32v-64zM140 480h-32v-64h32v64zM524 128h32v32h-32v-32zM204 544h-32v-32h32v32zM492 96h32v32h-32v-32zM172 512h-32v-32h32v32zM189 735h-32v96h32v32h32v32h96v-32h64v-32h96v32h32v32h32v-96h-32
v-32h-32v-32h-96v32h-64v32h-96v-32h-32v-32zM285 831v32h-32v-32h32zM413 799v-32h32v32h-32z" />
    <glyph glyph-name="ucircumflex" unicode="&#xfb;" horiz-adv-x="487" 
d="M276 0h-160v32h-32v32h-32v416h96v-352h32v-32h96v32h32v32h32v320h96v-480h-96v64h-32v-32h-32v-32zM148 32h96v32h-96v32h-32v352h-32v-352h32v-32h32v-32zM340 96h32v-64h32v416h-32v-320h-32v-32zM147 512h-64v32h32v32h32v32h32v32h128v-32h32v-32h32v-32h32v-32
h-64v32h-64v32h-64v-32h-64v-32z" />
    <glyph glyph-name="Ucircumflex" unicode="&#xdb;" horiz-adv-x="594" 
d="M407 0h-224v32h-64v32h-32v64h-32v512h96v-448h32v-64h32v-32h160v32h32v64h32v448h96v-512h-32v-64h-32v-32h-64v-32zM183 64v32h-32v64h-32v448h-32v-448h32v-64h32v-32h32zM471 160h32v448h-32v-448zM215 32h160v32h-160v-32zM439 96h32v64h-32v-64zM407 64h32v32h-32
v-32zM201 672h-64v32h32v32h32v32h32v32h128v-32h32v-32h32v-32h32v-32h-64v32h-64v32h-64v-32h-64v-32z" />
    <glyph glyph-name="igrave" unicode="&#xec;" 
d="M153 0h-96v480h96v-480zM89 32h32v416h-32v-416zM186 544h-96v32h-32v32h-32v32h96v-32h32v-32h32v-32z" />
    <glyph glyph-name="Igrave" unicode="&#xcc;" 
d="M153 0h-96v640h96v-640zM89 32h32v576h-32v-576zM186 704h-96v32h-32v32h-32v32h96v-32h32v-32h32v-32z" />
    <glyph glyph-name="ecircumflex" unicode="&#xea;" horiz-adv-x="468" 
d="M138 288h192v64h-32v32h-128v-32h-32v-64zM298 0h-128v32h-64v32h-32v64h-32v224h32v64h32v32h64v32h128v-32h64v-32h32v-64h32v-128h-288v-96h32v-32h128v32h32v32h96v-64h-32v-32h-32v-32h-64v-32zM74 160h32v160h-32v-160zM266 416v32h-64v-32h64zM362 256h32v64h-32
v-64zM202 32h64v32h-64v-32zM138 512h-64v32h32v32h32v32h32v32h128v-32h32v-32h32v-32h32v-32h-64v32h-64v32h-64v-32h-64v-32z" />
    <glyph glyph-name="egrave" unicode="&#xe8;" horiz-adv-x="468" 
d="M138 288h192v64h-32v32h-128v-32h-32v-64zM298 0h-128v32h-64v32h-32v64h-32v224h32v64h32v32h64v32h128v-32h64v-32h32v-64h32v-128h-288v-96h32v-32h128v32h32v32h96v-64h-32v-32h-32v-32h-64v-32zM74 160h32v160h-32v-160zM266 416v32h-64v-32h64zM362 256h32v64h-32
v-64zM202 32h64v32h-64v-32zM314 544h-96v32h-32v32h-32v32h96v-32h32v-32h32v-32z" />
    <glyph glyph-name="atilde" unicode="&#xe3;" horiz-adv-x="509" 
d="M170 96h128v32h32v32h32v160h-32v32h-32v32h-128v-32h-32v-224h32v-32zM298 0h-128v32h-64v32h-32v64h-32v224h32v64h32v32h64v32h128v-32h32v-32h32v64h96v-480h-96v64h-32v-32h-32v-32zM362 96h32v-64h32v416h-32v-64h-32v-32h32v-224h-32v-32zM106 320h-32v-160h32
v160zM202 416h64v32h-64v-32zM202 32h64v32h-64v-32zM94 575h-32v96h32v32h32v32h96v-32h64v-32h96v32h32v32h32v-96h-32v-32h-32v-32h-96v32h-64v32h-96v-32h-32v-32zM190 671v32h-32v-32h32zM318 639v-32h32v32h-32z" />
    <glyph glyph-name="agrave" unicode="&#xe0;" horiz-adv-x="509" 
d="M170 96h128v32h32v32h32v160h-32v32h-32v32h-128v-32h-32v-224h32v-32zM298 0h-128v32h-64v32h-32v64h-32v224h32v64h32v32h64v32h128v-32h32v-32h32v64h96v-480h-96v64h-32v-32h-32v-32zM362 96h32v-64h32v416h-32v-64h-32v-32h32v-224h-32v-32zM106 320h-32v-160h32
v160zM202 416h64v32h-64v-32zM202 32h64v32h-64v-32zM334 544h-96v32h-32v32h-32v32h96v-32h32v-32h32v-32z" />
    <glyph glyph-name="ydieresis" unicode="&#xff;" horiz-adv-x="460" 
d="M230 -192h-96v96h32v96h32v64h-32v64h-32v64h-32v96h-32v96h-32v96h96v-96h32v-96h32v-96h32v-32h32v128h32v96h32v96h96v-96h-32v-96h-32v-96h-32v-96h-32v-96h-32v-96h-32v-96zM230 32h32v96h-64v-32h32v-64zM166 -160h32v32h-32v-32zM102 416v32h-32v-32h32zM134 320
v32h-32v-32h32zM166 224v32h-32v-32h32zM358 416h32v32h-32v-32zM326 320h32v32h-32v-32zM294 224h32v32h-32v-32zM198 -64h32v32h-32v-32zM182 576h-96v96h96v-96zM374 576h-96v96h96v-96zM310 608h32v32h-32v-32zM118 608h32v32h-32v-32z" />
    <glyph glyph-name="sacute" unicode="&#x15b;" horiz-adv-x="411" 
d="M304 0h-192v32h-32v32h-32v64h32v32h32v-32h32v-32h32v-32h64v32h32v64h-32v32h-32v32h-64v32h-32v32h-32v32h-32v96h32v32h32v32h192v-32h32v-96h-64v32h-32v32h-64v-32h-32v-32h32v-32h32v-32h64v-32h32v-32h32v-32h32v-128h-32v-32h-32v-32zM304 96h32v64h-32v-64z
M112 384h-32v-32h32v32zM221 576h-96v32h32v32h32v32h96v-32h-32v-32h-32v-32z" />
    <glyph glyph-name="Sacute" unicode="&#x15a;" horiz-adv-x="515" 
d="M340 0h-160v32h-64v32h-32v32h-32v64h96v-32h32v-32h160v32h32v96h-32v32h-32v32h-96v32h-96v32h-32v32h-32v160h32v32h32v32h32v32h224v-32h32v-32h32v-64h-96v32h-160v-32h-32v-96h64v-32h96v-32h64v-32h64v-64h32v-160h-32v-32h-32v-32h-64v-32zM340 576v32h-160v-32
h160zM116 512h-32v-96h32v96zM404 128h32v96h-32v-96zM212 32h96v32h-96v-32zM276 320v32h-32v-32h32zM180 352v32h-32v-32h32zM404 256v32h-32v-32h32zM273 736h-96v32h32v32h32v32h96v-32h-32v-32h-32v-32z" />
    <glyph glyph-name="Racute" unicode="&#x154;" horiz-adv-x="617" 
d="M153 384h224v32h32v96h-32v32h-224v-160zM153 0h-96v640h352v-32h32v-32h32v-32h32v-160h-32v-32h-32v-32h-32v-32h-96v-32h32v-32h32v-32h32v-32h32v-32h32v-32h32v-32h32v-32h32v-32h-128v32h-32v32h-32v32h-32v32h-32v32h-32v32h-32v32h-32v32h-32v32h-32v-288z
M377 352h-256v224h256v32h-288v-576h32v288h96v-32h32v-32h32v64h96v32zM441 416h32v96h-32v-96zM324 736h-96v32h32v32h32v32h96v-32h-32v-32h-32v-32z" />
    <glyph glyph-name="Ccircumflex" unicode="&#x108;" horiz-adv-x="661" 
d="M428 0h-160v32h-96v32h-32v32h-32v32h-32v64h-32v256h32v64h32v32h32v32h32v32h96v32h160v-32h96v-32h32v-64h32v-32h32v-32h-128v32h-32v32h-64v32h-96v-32h-64v-32h-32v-32h-32v-64h-32v-128h32v-64h32v-32h32v-32h64v-32h96v32h64v32h32v32h128v-32h-32v-32h-32v-64
h-32v-32h-96v-32zM268 64v32h-64v32h-32v32h-32v64h-32v192h-32v-192h32v-64h32v-32h32v-32h32v-32h64zM300 32h96v32h-96v-32zM396 576v32h-96v-32h96zM428 576v-32h64v-32h32v32h-32v32h-64zM204 544h64v32h-64v-32zM428 64h64v32h-64v-32zM108 416h32v64h-32v-64z
M172 512h32v32h-32v-32zM492 96h32v32h-32v-32zM140 480h32v32h-32v-32zM234 672h-64v32h32v32h32v32h32v32h128v-32h32v-32h32v-32h32v-32h-64v32h-64v32h-64v-32h-64v-32z" />
    <glyph glyph-name="Scircumflex" unicode="&#x15c;" horiz-adv-x="515" 
d="M340 0h-160v32h-64v32h-32v32h-32v64h96v-32h32v-32h160v32h32v96h-32v32h-32v32h-96v32h-96v32h-32v32h-32v160h32v32h32v32h32v32h224v-32h32v-32h32v-64h-96v32h-160v-32h-32v-96h64v-32h96v-32h64v-32h64v-64h32v-160h-32v-32h-32v-32h-64v-32zM340 576v32h-160v-32
h160zM116 512h-32v-96h32v96zM404 128h32v96h-32v-96zM212 32h96v32h-96v-32zM276 320v32h-32v-32h32zM180 352v32h-32v-32h32zM404 256v32h-32v-32h32zM161 672h-64v32h32v32h32v32h32v32h128v-32h32v-32h32v-32h32v-32h-64v32h-64v32h-64v-32h-64v-32z" />
    <glyph glyph-name="ccircumflex" unicode="&#x109;" horiz-adv-x="441" 
d="M298 0h-128v32h-64v32h-32v64h-32v224h32v64h32v32h64v32h128v-32h64v-32h32v-96h-64v32h-32v32h-128v-32h-32v-224h32v-32h128v32h32v32h64v-96h-32v-32h-64v-32zM106 320h-32v-160h32v160zM202 32h64v32h-64v-32zM266 416v32h-64v-32h64zM125 512h-64v32h32v32h32v32
h32v32h128v-32h32v-32h32v-32h32v-32h-64v32h-64v32h-64v-32h-64v-32z" />
    <glyph glyph-name="scircumflex" unicode="&#x15d;" horiz-adv-x="411" 
d="M304 0h-192v32h-32v32h-32v64h32v32h32v-32h32v-32h32v-32h64v32h32v64h-32v32h-32v32h-64v32h-32v32h-32v32h-32v96h32v32h32v32h192v-32h32v-96h-64v32h-32v32h-64v-32h-32v-32h32v-32h32v-32h64v-32h32v-32h32v-32h32v-128h-32v-32h-32v-32zM304 96h32v64h-32v-64z
M112 384h-32v-32h32v32zM110 512h-64v32h32v32h32v32h32v32h128v-32h32v-32h32v-32h32v-32h-64v32h-64v32h-64v-32h-64v-32z" />
    <glyph glyph-name="gcircumflex" unicode="&#x11d;" horiz-adv-x="518" 
d="M173 96h128v32h32v32h32v160h-32v32h-32v32h-128v-32h-32v-224h32v-32zM333 -192h-160v32h-64v32h-32v32h-32v32h32v32h64v-32h32v-32h160v32h32v128h-32v-32h-32v-32h-128v32h-64v32h-32v64h-32v224h32v64h32v32h64v32h128v-32h32v-32h32v64h96v-576h-32v-32h-32v-32
h-64v-32zM397 -64h32v512h-32v-64h-32v-32h32v-224h-32v-32h32v-160zM109 320h-32v-160h32v160zM205 -160h96v32h-96v-32zM269 416v32h-64v-32h64zM205 64v-32h64v32h-64zM301 64h32v32h-32v-32zM163 512h-64v32h32v32h32v32h32v32h128v-32h32v-32h32v-32h32v-32h-64v32h-64
v32h-64v-32h-64v-32z" />
    <glyph glyph-name="Gcircumflex" unicode="&#x11c;" horiz-adv-x="667" 
d="M428 0h-160v32h-96v32h-32v32h-32v32h-32v64h-32v256h32v64h32v32h32v32h32v32h96v32h160v-32h96v-32h32v-64h32v-32h32v-32h-128v32h-32v32h-64v32h-96v-32h-64v-32h-32v-32h-32v-64h-32v-128h32v-64h32v-32h32v-32h64v-32h96v32h64v32h32v32h32v64h-192v96h288v-192
h-32v-32h-32v-64h-32v-32h-96v-32zM268 64v32h-64v32h-32v32h-32v64h-32v192h-32v-192h32v-64h32v-32h32v-32h32v-32h64zM556 192h32v128h-224v-32h192v-96zM300 32h96v32h-96v-32zM428 576v-32h64v-32h32v32h-32v32h-64zM396 576v32h-96v-32h96zM428 64h64v32h-64v-32z
M204 544h64v32h-64v-32zM108 416h32v64h-32v-64zM172 512h32v32h-32v-32zM492 96h32v32h-32v-32zM140 480h32v32h-32v-32zM237 672h-64v32h32v32h32v32h32v32h128v-32h32v-32h32v-32h32v-32h-64v32h-64v32h-64v-32h-64v-32z" />
    <glyph glyph-name="Acircumflex" unicode="&#xc2;" horiz-adv-x="674" 
d="M210 288h224v32h-32v64h-32v64h-32v64h-32v-64h-32v-64h-32v-64h-32v-32zM114 0h-96v96h32v64h32v96h32v64h32v64h32v64h32v64h32v64h32v64h96v-64h32v-64h32v-64h32v-64h32v-64h32v-64h32v-96h32v-64h32v-96h-96v64h-32v64h-32v64h-288v-64h-32v-64h-32v-64zM466 256
h-288v32h-32v-64h352v-64h32v64h-32v64h-32v-32zM114 160h32v64h-32v-64zM306 544h32v64h-32v-64zM562 32h32v32h-32v-32zM530 96h32v32h-32v-32zM50 32h32v32h-32v-32zM82 96h32v32h-32v-32zM241 672h-64v32h32v32h32v32h32v32h128v-32h32v-32h32v-32h32v-32h-64v32h-64v32
h-64v-32h-64v-32z" />
    <glyph glyph-name="Atilde" unicode="&#xc3;" horiz-adv-x="674" 
d="M210 288h224v32h-32v64h-32v64h-32v64h-32v-64h-32v-64h-32v-64h-32v-32zM114 0h-96v96h32v64h32v96h32v64h32v64h32v64h32v64h32v64h32v64h96v-64h32v-64h32v-64h32v-64h32v-64h32v-64h32v-96h32v-64h32v-96h-96v64h-32v64h-32v64h-288v-64h-32v-64h-32v-64zM466 256
h-288v32h-32v-64h352v-64h32v64h-32v64h-32v-32zM114 160h32v64h-32v-64zM306 544h32v64h-32v-64zM562 32h32v32h-32v-32zM530 96h32v32h-32v-32zM50 32h32v32h-32v-32zM82 96h32v32h-32v-32zM177 735h-32v96h32v32h32v32h96v-32h64v-32h96v32h32v32h32v-96h-32v-32h-32v-32
h-96v32h-64v32h-96v-32h-32v-32zM273 831v32h-32v-32h32zM401 799v-32h32v32h-32z" />
    <glyph glyph-name="racute" unicode="&#x155;" horiz-adv-x="434" 
d="M149 0h-96v480h96v-64h32v32h32v32h128v-32h32v-32h32v-64h-32v-32h-32v32h-32v32h-96v-32h-32v-32h-32v-320zM85 32h32v320h32v32h-32v64h-32v-416zM309 416v32h-64v-32h64zM233 576h-96v32h32v32h32v32h96v-32h-32v-32h-32v-32z" />
    <glyph glyph-name="Nacute" unicode="&#x143;" horiz-adv-x="628" 
d="M153 0h-96v640h160v-64h32v-64h32v-64h32v-64h32v-64h32v-64h32v-64h32v-64h32v512h96v-640h-160v64h-32v64h-32v64h-32v64h-32v64h-32v64h-32v64h-32v64h-32v-512zM89 32h32v512h64v64h-96v-576zM441 96v-64h96v576h-32v-512h-64zM330 736h-96v32h32v32h32v32h96v-32
h-32v-32h-32v-32z" />
    <glyph glyph-name="Ydieresis" unicode="&#x178;" horiz-adv-x="601" 
d="M348 0h-96v224h-32v64h-32v64h-32v64h-32v64h-32v64h-32v64h-32v32h128v-64h32v-64h32v-64h32v-64h32v-64h32v64h32v64h32v64h32v64h32v64h128v-32h-32v-64h-32v-64h-32v-64h-32v-64h-32v-64h-32v-64h-32v-224zM284 32h32v224h32v32h-96v-32h32v-224zM156 512v32h-32v-32
h32zM188 448v32h-32v-32h32zM220 384v32h-32v-32h32zM252 320v32h-32v-32h32zM380 384h32v32h-32v-32zM476 576h32v32h-32v-32zM444 512h32v32h-32v-32zM412 448h32v32h-32v-32zM124 576v32h-32v-32h32zM348 320h32v32h-32v-32zM252 736h-96v96h96v-96zM444 736h-96v96h96
v-96zM380 768h32v32h-32v-32zM188 768h32v32h-32v-32z" />
    <glyph glyph-name="ring" unicode="&#x2da;" horiz-adv-x="218" 
d="M97 512h32v32h32v32h-32v32h-32v-32h-32v-32h32v-32zM65 480v32h-32v96h32v32h96v-32h32v-96h-32v-32h-96z" />
    <glyph glyph-name="aring" unicode="&#xe5;" horiz-adv-x="509" 
d="M170 96h128v32h32v32h32v160h-32v32h-32v32h-128v-32h-32v-224h32v-32zM298 0h-128v32h-64v32h-32v64h-32v224h32v64h32v32h64v32h128v-32h32v-32h32v64h96v-480h-96v64h-32v-32h-32v-32zM362 96h32v-64h32v416h-32v-64h-32v-32h32v-224h-32v-32zM106 320h-32v-160h32
v160zM202 416h64v32h-64v-32zM202 32h64v32h-64v-32zM238 512h32v32h32v32h-32v32h-32v-32h-32v-32h32v-32zM206 480v32h-32v96h32v32h96v-32h32v-96h-32v-32h-96z" />
    </font>
</defs>
</svg>
